<svg width="127" height="158" viewBox="0 0 127 158" fill="none" xmlns="http://www.w3.org/2000/svg">
<path d="M69.6259 34.1128C83.4811 33.713 95.7948 36.0589 109.287 41.7925L110.836 64.2588C96.6032 57.8262 85.184 55.2744 73.6679 55.6068C50.8158 56.2663 37.4832 68.5369 38.0545 88.3301C38.6154 107.763 53.0141 119.954 77.6656 119.243C90.2613 118.879 104.738 115.04 114.103 108.826L112.948 131.191C101.973 137.81 89.1058 141.243 72.9114 141.711C35.3043 142.796 11.3152 122.778 10.3544 89.4897C9.39886 56.3811 32.0188 35.1982 69.6259 34.1128Z" fill="black"/>
<g clip-path="url(#clip0_2021_418)">
<path d="M72.1409 122.072C68.2751 122.04 65.1622 119.481 65.1932 115.744C65.2062 114.187 65.8601 112.506 67.0092 111.414L69.9425 108.624C71.4343 107.206 72.2852 104.701 72.302 102.679C72.2852 104.701 73.0963 107.22 74.5644 108.662L77.4529 111.501C78.5817 112.613 79.2077 114.304 79.1947 115.86C79.1637 119.598 76.0088 122.104 72.1429 122.072L72.1409 122.072ZM72.1409 122.072C63.0292 121.997 55.6919 115.865 55.7687 106.617C55.8007 102.767 57.3449 98.4041 60.0514 95.7037L66.973 88.7958C70.4863 85.2831 72.4979 79.078 72.5395 74.0739C72.4979 79.078 74.4062 85.3177 77.8627 88.8863L84.6666 95.9081C87.3279 98.653 88.7995 103.041 88.7676 106.891C88.6908 116.139 81.2546 122.148 72.1409 122.072Z" stroke="black" stroke-width="2.54167"/>
</g>
<defs>
<clipPath id="clip0_2021_418">
<rect width="61" height="61" fill="white" transform="translate(53.1646 58.9125) rotate(0.475737)"/>
</clipPath>
</defs>
</svg>
