<svg width="164" height="66" viewBox="0 0 164 66" fill="none" xmlns="http://www.w3.org/2000/svg">
<mask id="path-1-outside-1_232_8" maskUnits="userSpaceOnUse" x="0.0121212" y="14.9271" width="162.026" height="27.158" fill="black">
<rect fill="white" x="0.0121212" y="14.9271" width="162.026" height="27.158"/>
<path d="M26.9991 23.3961C24.6309 22.485 22.0677 21.8335 18.66 21.8301C12.6237 21.8243 9.79809 24.0283 9.7936 28.6367C9.78926 33.0829 12.7729 35.2602 18.939 35.2662C21.7625 35.2689 24.4242 34.6874 27.5408 33.587L27.1776 39.98C24.4505 41.0483 21.172 41.6941 17.2452 41.6903C6.98987 41.6803 1.08777 37.1311 1.09587 28.823C1.10398 20.5149 6.95013 15.8797 17.2379 15.8898C21.0349 15.8935 24.2147 16.5781 26.7128 17.3919L26.9991 23.3961ZM29.4766 36.7044C29.4806 32.6153 33.5394 30.4773 42.8211 30.4864L43.6324 30.4871L43.6328 30.1302C43.6348 28.0856 41.9159 26.948 38.4758 26.9447C36.204 26.9425 34.1591 27.2975 30.9777 28.3004L30.9824 23.4973C33.3524 22.526 36.6633 21.8802 40.006 21.8834C47.1458 21.8904 51.0696 25.0422 51.064 30.8189L51.0541 40.9769L43.8494 40.9698L43.8529 37.3675C41.9355 40.0917 39.078 41.7116 35.6055 41.7082C31.8409 41.7046 29.4736 39.7875 29.4766 36.7044ZM36.3578 35.7051C36.3567 36.8409 37.2973 37.3936 38.6928 37.3949C40.0883 37.3963 41.7115 36.8462 43.6278 35.1929L43.6296 33.408L42.9481 33.4073C38.1125 33.4026 36.3593 34.1473 36.3578 35.7051ZM53.9576 40.9797L53.9756 22.611L61.2451 22.6181L61.2404 27.4537C62.6071 23.7553 65.4646 22.0705 69.0994 22.0741C73.5131 22.0784 75.9447 24.5797 75.9399 29.4152L75.9286 41.0011L68.3021 40.9937L68.312 30.8358C68.314 28.7912 67.1467 27.6866 65.2969 27.6848C63.7716 27.6833 62.4402 28.4285 61.5949 30.0503L61.5842 40.9871L53.9576 40.9797ZM87.3865 21.9946C90.6968 21.9978 93.4539 23.4284 94.9441 26.2209L94.9548 15.2516L102.581 15.2591L102.556 41.0271L94.9296 41.0197L94.9332 37.4173C93.2103 40.304 90.7749 41.7621 87.4646 41.7588C82.0773 41.7536 78.4141 37.6609 78.4197 31.9166C78.4254 26.1074 81.9344 21.9892 87.3865 21.9946ZM90.5298 26.8007C87.966 26.7982 86.4713 28.6791 86.4683 31.7622C86.4653 34.8128 87.9564 36.6641 90.5202 36.6666C92.9542 36.669 94.6111 34.8532 94.614 31.8999L94.6143 31.6079C94.6172 28.6221 93.0612 26.8032 90.5298 26.8007ZM105.137 31.9751C105.143 25.744 109.593 21.9513 116.927 21.9585C123.32 21.9647 127.504 25.4413 127.498 30.8286L127.496 33.1652L112.535 33.1507C113.311 35.5854 115.712 36.8859 119.639 36.8897C122.105 36.8921 124.832 36.408 127.461 35.5992L127.1 40.2397C124.632 41.2109 121.906 41.7924 118.466 41.7891C110.125 41.7809 105.131 38.0764 105.137 31.9751ZM120.229 30.2373C120.167 27.9006 118.87 26.5688 116.468 26.5664C114.002 26.564 112.54 27.9256 112.473 30.2298L120.229 30.2373ZM130.111 15.2859L137.738 15.2934L137.713 41.0614L130.086 41.054L130.111 15.2859ZM140.021 36.8123C140.025 32.7231 144.084 30.5852 153.366 30.5942L154.177 30.595L154.177 30.238C154.179 28.1934 152.461 27.0559 149.02 27.0525C146.749 27.0503 144.704 27.4053 141.522 28.4083L141.527 23.6051C143.897 22.6339 147.208 21.988 150.551 21.9913C157.69 21.9982 161.614 25.1501 161.609 30.9268L161.599 41.0847L154.394 41.0777L154.398 37.4754C152.48 40.1996 149.623 41.8195 146.15 41.8161C142.386 41.8124 140.018 39.8953 140.021 36.8123ZM146.902 35.8129C146.901 36.9488 147.842 37.5014 149.237 37.5028C150.633 37.5041 152.256 36.954 154.173 35.3008L154.174 33.5158L153.493 33.5151C148.657 33.5104 146.904 34.2551 146.902 35.8129Z"/>
</mask>
<path d="M26.9991 23.3961C24.6309 22.485 22.0677 21.8335 18.66 21.8301C12.6237 21.8243 9.79809 24.0283 9.7936 28.6367C9.78926 33.0829 12.7729 35.2602 18.939 35.2662C21.7625 35.2689 24.4242 34.6874 27.5408 33.587L27.1776 39.98C24.4505 41.0483 21.172 41.6941 17.2452 41.6903C6.98987 41.6803 1.08777 37.1311 1.09587 28.823C1.10398 20.5149 6.95013 15.8797 17.2379 15.8898C21.0349 15.8935 24.2147 16.5781 26.7128 17.3919L26.9991 23.3961ZM29.4766 36.7044C29.4806 32.6153 33.5394 30.4773 42.8211 30.4864L43.6324 30.4871L43.6328 30.1302C43.6348 28.0856 41.9159 26.948 38.4758 26.9447C36.204 26.9425 34.1591 27.2975 30.9777 28.3004L30.9824 23.4973C33.3524 22.526 36.6633 21.8802 40.006 21.8834C47.1458 21.8904 51.0696 25.0422 51.064 30.8189L51.0541 40.9769L43.8494 40.9698L43.8529 37.3675C41.9355 40.0917 39.078 41.7116 35.6055 41.7082C31.8409 41.7046 29.4736 39.7875 29.4766 36.7044ZM36.3578 35.7051C36.3567 36.8409 37.2973 37.3936 38.6928 37.3949C40.0883 37.3963 41.7115 36.8462 43.6278 35.1929L43.6296 33.408L42.9481 33.4073C38.1125 33.4026 36.3593 34.1473 36.3578 35.7051ZM53.9576 40.9797L53.9756 22.611L61.2451 22.6181L61.2404 27.4537C62.6071 23.7553 65.4646 22.0705 69.0994 22.0741C73.5131 22.0784 75.9447 24.5797 75.9399 29.4152L75.9286 41.0011L68.3021 40.9937L68.312 30.8358C68.314 28.7912 67.1467 27.6866 65.2969 27.6848C63.7716 27.6833 62.4402 28.4285 61.5949 30.0503L61.5842 40.9871L53.9576 40.9797ZM87.3865 21.9946C90.6968 21.9978 93.4539 23.4284 94.9441 26.2209L94.9548 15.2516L102.581 15.2591L102.556 41.0271L94.9296 41.0197L94.9332 37.4173C93.2103 40.304 90.7749 41.7621 87.4646 41.7588C82.0773 41.7536 78.4141 37.6609 78.4197 31.9166C78.4254 26.1074 81.9344 21.9892 87.3865 21.9946ZM90.5298 26.8007C87.966 26.7982 86.4713 28.6791 86.4683 31.7622C86.4653 34.8128 87.9564 36.6641 90.5202 36.6666C92.9542 36.669 94.6111 34.8532 94.614 31.8999L94.6143 31.6079C94.6172 28.6221 93.0612 26.8032 90.5298 26.8007ZM105.137 31.9751C105.143 25.744 109.593 21.9513 116.927 21.9585C123.32 21.9647 127.504 25.4413 127.498 30.8286L127.496 33.1652L112.535 33.1507C113.311 35.5854 115.712 36.8859 119.639 36.8897C122.105 36.8921 124.832 36.408 127.461 35.5992L127.1 40.2397C124.632 41.2109 121.906 41.7924 118.466 41.7891C110.125 41.7809 105.131 38.0764 105.137 31.9751ZM120.229 30.2373C120.167 27.9006 118.87 26.5688 116.468 26.5664C114.002 26.564 112.54 27.9256 112.473 30.2298L120.229 30.2373ZM130.111 15.2859L137.738 15.2934L137.713 41.0614L130.086 41.054L130.111 15.2859ZM140.021 36.8123C140.025 32.7231 144.084 30.5852 153.366 30.5942L154.177 30.595L154.177 30.238C154.179 28.1934 152.461 27.0559 149.02 27.0525C146.749 27.0503 144.704 27.4053 141.522 28.4083L141.527 23.6051C143.897 22.6339 147.208 21.988 150.551 21.9913C157.69 21.9982 161.614 25.1501 161.609 30.9268L161.599 41.0847L154.394 41.0777L154.398 37.4754C152.48 40.1996 149.623 41.8195 146.15 41.8161C142.386 41.8124 140.018 39.8953 140.021 36.8123ZM146.902 35.8129C146.901 36.9488 147.842 37.5014 149.237 37.5028C150.633 37.5041 152.256 36.954 154.173 35.3008L154.174 33.5158L153.493 33.5151C148.657 33.5104 146.904 34.2551 146.902 35.8129Z" fill="black" fill-opacity="0.5"/>
<path d="M26.9991 23.3961L26.9273 23.5827L27.2134 23.6928L27.1988 23.3865L26.9991 23.3961ZM27.5408 33.587L27.7405 33.5983L27.7576 33.2984L27.4743 33.3984L27.5408 33.587ZM27.1776 39.98L27.2506 40.1662L27.37 40.1194L27.3773 39.9913L27.1776 39.98ZM26.7128 17.3919L26.9126 17.3823L26.906 17.2445L26.7748 17.2017L26.7128 17.3919ZM27.0709 23.2094C24.6842 22.2913 22.0966 21.6335 18.6602 21.6301L18.6599 22.0301C22.0387 22.0334 24.5775 22.6788 26.9273 23.5827L27.0709 23.2094ZM18.6602 21.6301C15.6242 21.6272 13.3557 22.1788 11.8428 23.3447C10.3192 24.5189 9.59589 26.289 9.5936 28.6365L9.9936 28.6369C9.9958 26.3761 10.6876 24.74 12.087 23.6615C13.4971 22.5747 15.6596 22.0272 18.6599 22.0301L18.6602 21.6301ZM9.5936 28.6365C9.59138 30.9094 10.3563 32.6321 11.9349 33.7783C13.5009 34.9154 15.8386 35.4632 18.9388 35.4662L18.9392 35.0662C15.8733 35.0632 13.6361 34.5192 12.1699 33.4547C10.7162 32.3992 9.99148 30.8102 9.9936 28.6369L9.5936 28.6365ZM18.9388 35.4662C21.7922 35.469 24.4773 34.8807 27.6074 33.7756L27.4743 33.3984C24.3711 34.494 21.7328 35.0689 18.9392 35.0662L18.9388 35.4662ZM27.3412 33.5756L26.9779 39.9686L27.3773 39.9913L27.7405 33.5983L27.3412 33.5756ZM27.1047 39.7938C24.4032 40.852 21.1499 41.4941 17.2454 41.4903L17.245 41.8903C21.1942 41.8942 24.4977 41.2446 27.2506 40.1662L27.1047 39.7938ZM17.2454 41.4903C12.1435 41.4853 8.15435 40.3508 5.4457 38.2115C2.74424 36.0778 1.29187 32.9253 1.29587 28.8232L0.895872 28.8228C0.891769 33.0287 2.38639 36.3049 5.19778 38.5254C8.00199 40.7402 12.0915 41.8853 17.245 41.8903L17.2454 41.4903ZM1.29587 28.8232C1.29987 24.7201 2.74289 21.5458 5.43685 19.3933C8.13749 17.2355 12.1204 16.0848 17.2377 16.0898L17.2381 15.6898C12.0677 15.6847 7.98358 16.8465 5.18717 19.0808C2.38409 21.3205 0.899975 24.6177 0.895872 28.8228L1.29587 28.8232ZM17.2377 16.0898C21.0104 16.0934 24.1692 16.7736 26.6509 17.582L26.7748 17.2017C24.2602 16.3826 21.0595 15.6935 17.2381 15.6898L17.2377 16.0898ZM26.5131 17.4014L26.7993 23.4056L27.1988 23.3865L26.9126 17.3823L26.5131 17.4014ZM43.6324 30.4871L43.6322 30.6871L43.8322 30.6873L43.8324 30.4873L43.6324 30.4871ZM30.9777 28.3004L30.7777 28.3002L30.7774 28.5733L31.0378 28.4912L30.9777 28.3004ZM30.9824 23.4973L30.9065 23.3122L30.7825 23.3631L30.7824 23.4971L30.9824 23.4973ZM51.0541 40.9769L51.0539 41.1769L51.2539 41.1771L51.2541 40.9771L51.0541 40.9769ZM43.8494 40.9698L43.6494 40.9696L43.6492 41.1696L43.8492 41.1698L43.8494 40.9698ZM43.8529 37.3675L44.0529 37.3677L44.0535 36.735L43.6894 37.2524L43.8529 37.3675ZM43.6278 35.1929L43.7585 35.3443L43.8278 35.2846L43.8278 35.1931L43.6278 35.1929ZM43.6296 33.408L43.8296 33.4082L43.8298 33.2082L43.6298 33.208L43.6296 33.408ZM29.6766 36.7046C29.6776 35.7171 29.9228 34.8569 30.4237 34.1188C30.9254 33.3793 31.6924 32.7497 32.7563 32.2389C34.8903 31.2142 38.1885 30.6818 42.8209 30.6864L42.8213 30.2864C38.172 30.2818 34.8 30.8139 32.5832 31.8783C31.4716 32.412 30.6431 33.083 30.0927 33.8942C29.5413 34.7067 29.2777 35.6472 29.2766 36.7042L29.6766 36.7046ZM42.8209 30.6864L43.6322 30.6871L43.6326 30.2871L42.8213 30.2864L42.8209 30.6864ZM43.8324 30.4873L43.8328 30.1304L43.4328 30.13L43.4324 30.487L43.8324 30.4873ZM43.8328 30.1304C43.8339 29.041 43.3708 28.1806 42.4515 27.6026C41.546 27.0333 40.2123 26.7464 38.476 26.7447L38.4756 27.1447C40.1794 27.1463 41.4252 27.4298 42.2386 27.9413C43.0384 28.4441 43.4337 29.1748 43.4328 30.13L43.8328 30.1304ZM38.476 26.7447C36.1775 26.7424 34.1115 27.1028 30.9176 28.1097L31.0378 28.4912C34.2067 27.4921 36.2306 27.1425 38.4756 27.1447L38.476 26.7447ZM31.1777 28.3006L31.1824 23.4975L30.7824 23.4971L30.7777 28.3002L31.1777 28.3006ZM31.0582 23.6824C33.401 22.7222 36.6856 22.0802 40.0058 22.0834L40.0062 21.6834C36.641 21.6801 33.3038 22.3298 30.9065 23.3122L31.0582 23.6824ZM40.0058 22.0834C43.5502 22.0869 46.2647 22.8714 48.0889 24.3432C49.9062 25.8094 50.8667 27.9793 50.864 30.8187L51.264 30.8191C51.2668 27.8818 50.2683 25.5875 48.3401 24.0319C46.4189 22.4818 43.6016 21.6869 40.0062 21.6834L40.0058 22.0834ZM50.864 30.8187L50.8541 40.9767L51.2541 40.9771L51.264 30.8191L50.864 30.8187ZM51.0543 40.7769L43.8496 40.7698L43.8492 41.1698L51.0539 41.1769L51.0543 40.7769ZM44.0494 40.97L44.0529 37.3677L43.6529 37.3673L43.6494 40.9696L44.0494 40.97ZM43.6894 37.2524C41.8069 39.9269 39.0088 41.5116 35.6057 41.5082L35.6053 41.9082C39.1472 41.9117 42.0641 40.2565 44.0165 37.4826L43.6894 37.2524ZM35.6057 41.5082C33.7551 41.5064 32.2712 41.0343 31.2545 40.206C30.2424 39.3816 29.6752 38.1903 29.6766 36.7046L29.2766 36.7042C29.2751 38.3016 29.89 39.6104 31.0019 40.5162C32.1092 41.4182 33.6912 41.9064 35.6053 41.9082L35.6057 41.5082ZM36.1578 35.7049C36.1571 36.3371 36.4231 36.8218 36.8886 37.1405C37.3437 37.4521 37.973 37.5942 38.6926 37.5949L38.693 37.1949C38.0171 37.1943 37.4783 37.0594 37.1145 36.8104C36.761 36.5684 36.5573 36.2089 36.5578 35.7053L36.1578 35.7049ZM38.6926 37.5949C40.1473 37.5963 41.8153 37.0207 43.7585 35.3443L43.4972 35.0415C41.6077 36.6716 40.0292 37.1962 38.693 37.1949L38.6926 37.5949ZM43.8278 35.1931L43.8296 33.4082L43.4296 33.4078L43.4278 35.1927L43.8278 35.1931ZM43.6298 33.208L42.9483 33.2073L42.9479 33.6073L43.6294 33.608L43.6298 33.208ZM42.9483 33.2073C40.5275 33.2049 38.8499 33.3891 37.7716 33.7824C37.23 33.9799 36.8246 34.2353 36.5544 34.5603C36.2809 34.8892 36.1582 35.2746 36.1578 35.7049L36.5578 35.7053C36.5581 35.3566 36.6551 35.0648 36.8619 34.8161C37.072 34.5634 37.4074 34.3409 37.9087 34.1581C38.9162 33.7907 40.533 33.6049 42.9479 33.6073L42.9483 33.2073ZM53.9576 40.9797L53.7576 40.9795L53.7574 41.1795L53.9574 41.1797L53.9576 40.9797ZM53.9756 22.611L53.9757 22.411L53.7757 22.4108L53.7756 22.6108L53.9756 22.611ZM61.2451 22.6181L61.4451 22.6183L61.4453 22.4183L61.2453 22.4181L61.2451 22.6181ZM61.2404 27.4537L61.0404 27.4535L61.428 27.523L61.2404 27.4537ZM75.9286 41.0011L75.9284 41.2011L76.1284 41.2013L76.1286 41.0013L75.9286 41.0011ZM68.3021 40.9937L68.1021 40.9935L68.1019 41.1935L68.3019 41.1937L68.3021 40.9937ZM61.5949 30.0503L61.4175 29.9579L61.3949 30.0012L61.3949 30.0501L61.5949 30.0503ZM61.5842 40.9871L61.584 41.1871L61.784 41.1873L61.7842 40.9873L61.5842 40.9871ZM54.1576 40.9799L54.1756 22.6112L53.7756 22.6108L53.7576 40.9795L54.1576 40.9799ZM53.9754 22.811L61.2449 22.8181L61.2453 22.4181L53.9757 22.411L53.9754 22.811ZM61.0451 22.6179L61.0404 27.4535L61.4404 27.4539L61.4451 22.6183L61.0451 22.6179ZM61.428 27.523C62.0985 25.7085 63.1299 24.3993 64.4294 23.5427C65.73 22.6853 67.3128 22.2723 69.0992 22.2741L69.0996 21.8741C67.2512 21.8723 65.5878 22.2999 64.2093 23.2087C62.8297 24.1181 61.749 25.5005 61.0528 27.3844L61.428 27.523ZM69.0992 22.2741C71.2687 22.2762 72.9204 22.8911 74.031 24.0701C75.1434 25.2509 75.7423 27.0285 75.7399 29.4151L76.1399 29.4154C76.1423 26.9665 75.5277 25.0755 74.3222 23.7958C73.1148 22.5141 71.3438 21.8763 69.0996 21.8741L69.0992 22.2741ZM75.7399 29.4151L75.7286 41.0009L76.1286 41.0013L76.1399 29.4154L75.7399 29.4151ZM75.9288 40.8011L68.3023 40.7937L68.3019 41.1937L75.9284 41.2011L75.9288 40.8011ZM68.5021 40.9939L68.512 30.836L68.112 30.8356L68.1021 40.9935L68.5021 40.9939ZM68.512 30.836C68.513 29.776 68.2103 28.9328 67.6415 28.3541C67.0725 27.7751 66.2617 27.4858 65.2971 27.4848L65.2967 27.8848C66.1819 27.8857 66.8797 28.1496 67.3562 28.6344C67.833 29.1195 68.1129 29.851 68.112 30.8356L68.512 30.836ZM65.2971 27.4848C63.6944 27.4833 62.2961 28.2723 61.4175 29.9579L61.7722 30.1428C62.5844 28.5846 63.8487 27.8834 65.2967 27.8848L65.2971 27.4848ZM61.3949 30.0501L61.3842 40.987L61.7842 40.9873L61.7949 30.0505L61.3949 30.0501ZM61.5844 40.7871L53.9578 40.7797L53.9574 41.1797L61.584 41.1871L61.5844 40.7871ZM94.9441 26.2209L94.7676 26.315L95.1441 26.2211L94.9441 26.2209ZM94.9548 15.2516L94.955 15.0516L94.755 15.0514L94.7548 15.2514L94.9548 15.2516ZM102.581 15.2591L102.781 15.2592L102.782 15.0592L102.582 15.0591L102.581 15.2591ZM102.556 41.0271L102.556 41.2271L102.756 41.2273L102.756 41.0273L102.556 41.0271ZM94.9296 41.0197L94.7296 41.0195L94.7295 41.2195L94.9295 41.2197L94.9296 41.0197ZM94.9332 37.4173L95.1332 37.4175L95.1339 36.6908L94.7614 37.3148L94.9332 37.4173ZM87.3863 22.1946C90.6354 22.1977 93.3178 23.5981 94.7676 26.315L95.1205 26.1267C93.5901 23.2588 90.7582 21.7978 87.3867 21.7946L87.3863 22.1946ZM95.1441 26.2211L95.1548 15.2518L94.7548 15.2514L94.7441 26.2207L95.1441 26.2211ZM94.9546 15.4516L102.581 15.4591L102.582 15.0591L94.955 15.0516L94.9546 15.4516ZM102.381 15.2589L102.356 41.0269L102.756 41.0273L102.781 15.2592L102.381 15.2589ZM102.556 40.8271L94.9298 40.8197L94.9295 41.2197L102.556 41.2271L102.556 40.8271ZM95.1296 41.0199L95.1332 37.4175L94.7332 37.4171L94.7296 41.0195L95.1296 41.0199ZM94.7614 37.3148C93.9139 38.735 92.8968 39.7944 91.6931 40.4992C90.4899 41.2038 89.0895 41.5604 87.4648 41.5588L87.4644 41.9588C89.15 41.9605 90.6224 41.5897 91.8952 40.8444C93.1676 40.0993 94.2296 38.9864 95.1049 37.5198L94.7614 37.3148ZM87.4648 41.5588C84.8245 41.5563 82.6164 40.5534 81.0676 38.8551C79.5174 37.1553 78.6169 34.7464 78.6197 31.9168L78.2197 31.9164C78.2168 34.831 79.1452 37.3407 80.772 39.1246C82.4003 40.91 84.7174 41.9561 87.4644 41.9588L87.4648 41.5588ZM78.6197 31.9168C78.6225 29.0517 79.4889 26.62 81.0102 24.908C82.5294 23.1983 84.714 22.192 87.3863 22.1946L87.3867 21.7946C84.6069 21.7918 82.3109 22.842 80.7112 24.6423C79.1135 26.4403 78.2226 28.9723 78.2197 31.9164L78.6197 31.9168ZM90.53 26.6007C89.1948 26.5994 88.1202 27.091 87.3835 27.9983C86.6513 28.9 86.2698 30.1909 86.2683 31.762L86.6683 31.7624C86.6698 30.2504 87.0372 29.0593 87.694 28.2504C88.3464 27.4471 89.3011 26.9995 90.5296 27.0007L90.53 26.6007ZM86.2683 31.762C86.2668 33.3173 86.6459 34.5931 87.3771 35.4843C88.1125 36.3806 89.186 36.8653 90.52 36.8666L90.5204 36.4666C89.2906 36.4654 88.3366 36.0232 87.6863 35.2306C87.0318 34.4328 86.6669 33.2577 86.6683 31.7624L86.2683 31.762ZM90.52 36.8666C91.79 36.8678 92.8695 36.3931 93.6294 35.5232C94.3871 34.6559 94.8125 33.4131 94.814 31.9001L94.414 31.8997C94.4126 33.34 94.0081 34.4817 93.3282 35.2601C92.6504 36.0358 91.6845 36.4677 90.5204 36.4666L90.52 36.8666ZM94.814 31.9001L94.8143 31.608L94.4143 31.6077L94.414 31.8997L94.814 31.9001ZM94.8143 31.608C94.8158 30.0823 94.4189 28.8302 93.6747 27.9559C92.9272 27.0778 91.847 26.602 90.53 26.6007L90.5296 27.0007C91.7441 27.0019 92.7075 27.4368 93.3701 28.2152C94.036 28.9975 94.4157 30.1477 94.4143 31.6077L94.8143 31.608ZM127.496 33.1652L127.496 33.3652L127.696 33.3654L127.696 33.1654L127.496 33.1652ZM112.535 33.1507L112.535 32.9507L112.261 32.9504L112.344 33.2114L112.535 33.1507ZM127.461 35.5992L127.661 35.6148L127.683 35.3216L127.402 35.4081L127.461 35.5992ZM127.1 40.2397L127.173 40.4258L127.289 40.38L127.299 40.2553L127.1 40.2397ZM120.229 30.2373L120.229 30.4373L120.435 30.4375L120.429 30.232L120.229 30.2373ZM112.473 30.2298L112.273 30.2239L112.267 30.4296L112.473 30.4298L112.473 30.2298ZM105.337 31.9753C105.34 28.9107 106.433 26.4633 108.413 24.7798C110.397 23.0929 113.292 22.1549 116.927 22.1585L116.927 21.7585C113.228 21.7549 110.23 22.7096 108.154 24.4751C106.074 26.2439 104.94 28.8084 104.937 31.9749L105.337 31.9753ZM116.927 22.1585C120.089 22.1616 122.684 23.0228 124.484 24.529C126.28 26.0323 127.301 28.1908 127.298 30.8284L127.698 30.8288C127.701 28.0791 126.633 25.8057 124.741 24.2223C122.852 22.6419 120.159 21.7616 116.927 21.7585L116.927 22.1585ZM127.298 30.8284L127.296 33.1651L127.696 33.1654L127.698 30.8288L127.298 30.8284ZM127.496 32.9652L112.535 32.9507L112.535 33.3507L127.496 33.3652L127.496 32.9652ZM112.344 33.2114C113.16 35.7697 115.677 37.0859 119.638 37.0897L119.639 36.6897C115.747 36.6859 113.463 35.4011 112.726 33.0899L112.344 33.2114ZM119.638 37.0897C122.129 37.0922 124.876 36.6035 127.52 35.7904L127.402 35.4081C124.787 36.2125 122.081 36.6921 119.639 36.6897L119.638 37.0897ZM127.262 35.5837L126.9 40.2242L127.299 40.2553L127.661 35.6148L127.262 35.5837ZM127.026 40.0536C124.583 41.0155 121.881 41.5924 118.466 41.5891L118.465 41.9891C121.93 41.9925 124.682 41.4064 127.173 40.4258L127.026 40.0536ZM118.466 41.5891C114.322 41.585 111.035 40.6623 108.79 39.0061C106.552 37.3552 105.334 34.9644 105.337 31.9753L104.937 31.9749C104.934 35.0871 106.209 37.5992 108.552 39.3279C110.888 41.0514 114.269 41.985 118.465 41.9891L118.466 41.5891ZM120.429 30.232C120.397 29.0287 120.046 28.0561 119.367 27.3843C118.687 26.712 117.706 26.3676 116.468 26.3664L116.468 26.7664C117.632 26.7676 118.5 27.0903 119.085 27.6687C119.67 28.2476 119.999 29.1093 120.029 30.2427L120.429 30.232ZM116.468 26.3664C115.199 26.3652 114.164 26.7153 113.435 27.386C112.706 28.0579 112.308 29.0298 112.273 30.2239L112.673 30.2356C112.705 29.1256 113.072 28.2646 113.706 27.6803C114.342 27.0947 115.271 26.7653 116.468 26.7664L116.468 26.3664ZM112.473 30.4298L120.229 30.4373L120.23 30.0373L112.473 30.0298L112.473 30.4298ZM130.111 15.2859L130.111 15.0859L129.911 15.0857L129.911 15.2857L130.111 15.2859ZM137.738 15.2934L137.938 15.2935L137.938 15.0935L137.738 15.0934L137.738 15.2934ZM137.713 41.0614L137.713 41.2614L137.913 41.2616L137.913 41.0616L137.713 41.0614ZM130.086 41.054L129.886 41.0538L129.886 41.2538L130.086 41.254L130.086 41.054ZM130.111 15.4859L137.738 15.4934L137.738 15.0934L130.111 15.0859L130.111 15.4859ZM137.538 15.2932L137.513 41.0612L137.913 41.0616L137.938 15.2935L137.538 15.2932ZM137.713 40.8614L130.086 40.854L130.086 41.254L137.713 41.2614L137.713 40.8614ZM130.286 41.0542L130.311 15.2861L129.911 15.2857L129.886 41.0538L130.286 41.0542ZM154.177 30.595L154.177 30.795L154.377 30.7952L154.377 30.5952L154.177 30.595ZM141.522 28.4083L141.322 28.4081L141.322 28.6811L141.583 28.599L141.522 28.4083ZM141.527 23.6051L141.451 23.4201L141.327 23.4709L141.327 23.605L141.527 23.6051ZM161.599 41.0847L161.599 41.2847L161.799 41.2849L161.799 41.0849L161.599 41.0847ZM154.394 41.0777L154.194 41.0775L154.194 41.2775L154.394 41.2777L154.394 41.0777ZM154.398 37.4754L154.598 37.4756L154.598 36.8428L154.234 37.3602L154.398 37.4754ZM154.173 35.3008L154.303 35.4522L154.372 35.3924L154.373 35.3009L154.173 35.3008ZM154.174 33.5158L154.374 33.516L154.374 33.316L154.174 33.3158L154.174 33.5158ZM140.221 36.8125C140.222 35.8249 140.467 34.9648 140.968 34.2266C141.47 33.4871 142.237 32.8575 143.301 32.3467C145.435 31.3221 148.733 30.7897 153.366 30.7942L153.366 30.3942C148.717 30.3897 145.345 30.9217 143.128 31.9861C142.016 32.5198 141.188 33.1909 140.637 34.002C140.086 34.8145 139.822 35.7551 139.821 36.8121L140.221 36.8125ZM153.366 30.7942L154.177 30.795L154.177 30.395L153.366 30.3942L153.366 30.7942ZM154.377 30.5952L154.377 30.2382L153.977 30.2378L153.977 30.5948L154.377 30.5952ZM154.377 30.2382C154.379 29.1488 153.915 28.2884 152.996 27.7105C152.091 27.1412 150.757 26.8542 149.021 26.8525L149.02 27.2525C150.724 27.2542 151.97 27.5377 152.783 28.0491C153.583 28.5519 153.978 29.2826 153.977 30.2378L154.377 30.2382ZM149.021 26.8525C146.722 26.8503 144.656 27.2106 141.462 28.2175L141.583 28.599C144.751 27.6 146.775 27.2503 149.02 27.2525L149.021 26.8525ZM141.722 28.4085L141.727 23.6053L141.327 23.605L141.322 28.4081L141.722 28.4085ZM141.603 23.7902C143.946 22.8301 147.23 22.188 150.551 22.1913L150.551 21.7913C147.186 21.788 143.849 22.4376 141.451 23.4201L141.603 23.7902ZM150.551 22.1913C154.095 22.1947 156.809 22.9793 158.634 24.451C160.451 25.9172 161.411 28.0872 161.409 30.9266L161.809 30.927C161.812 27.9897 160.813 25.6954 158.885 24.1397C156.964 22.5897 154.146 21.7948 150.551 21.7913L150.551 22.1913ZM161.409 30.9266L161.399 41.0845L161.799 41.0849L161.809 30.927L161.409 30.9266ZM161.599 40.8847L154.394 40.8777L154.394 41.2777L161.599 41.2847L161.599 40.8847ZM154.594 41.0779L154.598 37.4756L154.198 37.4752L154.194 41.0775L154.594 41.0779ZM154.234 37.3602C152.352 40.0348 149.553 41.6194 146.15 41.6161L146.15 42.0161C149.692 42.0195 152.609 40.3644 154.561 37.5905L154.234 37.3602ZM146.15 41.6161C144.3 41.6143 142.816 41.1421 141.799 40.3139C140.787 39.4894 140.22 38.2981 140.221 36.8125L139.821 36.8121C139.82 38.4095 140.435 39.7182 141.547 40.624C142.654 41.526 144.236 42.0142 146.15 42.0161L146.15 41.6161ZM146.702 35.8127C146.702 36.4449 146.968 36.9297 147.433 37.2483C147.888 37.5599 148.518 37.7021 149.237 37.7028L149.238 37.3028C148.562 37.3021 148.023 37.1673 147.659 36.9183C147.306 36.6763 147.102 36.3168 147.102 35.8131L146.702 35.8127ZM149.237 37.7028C150.692 37.7042 152.36 37.1286 154.303 35.4522L154.042 35.1493C152.152 36.7794 150.574 37.3041 149.238 37.3028L149.237 37.7028ZM154.373 35.3009L154.374 33.516L153.974 33.5156L153.973 35.3006L154.373 35.3009ZM154.174 33.3158L153.493 33.3151L153.493 33.7151L154.174 33.7158L154.174 33.3158ZM153.493 33.3151C151.072 33.3128 149.395 33.497 148.316 33.8902C147.775 34.0877 147.369 34.3432 147.099 34.6682C146.826 34.9971 146.703 35.3825 146.702 35.8127L147.102 35.8131C147.103 35.4645 147.2 35.1726 147.407 34.9239C147.617 34.6713 147.952 34.4488 148.453 34.266C149.461 33.8986 151.078 33.7128 153.493 33.7151L153.493 33.3151Z" fill="black" mask="url(#path-1-outside-1_232_8)"/>
<path d="M26.9986 20.469C24.6304 19.558 22.0672 18.9064 18.6596 18.9031C12.6233 18.8972 9.79767 21.1012 9.79317 25.7096C9.78883 30.1558 12.7724 32.3331 18.9386 32.3391C21.762 32.3418 24.4238 31.7603 27.5404 30.6599L27.1772 37.0529C24.45 38.1212 21.1716 38.7671 17.2447 38.7632C6.98944 38.7532 1.08734 34.204 1.09544 25.8959C1.10355 17.5878 6.94971 12.9526 17.2375 12.9627C21.0345 12.9664 24.2143 13.651 26.7124 14.4648L26.9986 20.469ZM29.4762 33.7773C29.4802 29.6882 33.539 27.5502 42.8207 27.5593L43.632 27.5601L43.6324 27.2031C43.6344 25.1585 41.9154 24.0209 38.4754 24.0176C36.2036 24.0154 34.1587 24.3704 30.9773 25.3733L30.982 20.5702C33.352 19.5989 36.6629 18.9531 40.0056 18.9563C47.1454 18.9633 51.0692 22.1151 51.0635 27.8918L51.0536 38.0498L43.849 38.0428L43.8525 34.4404C41.9351 37.1646 39.0776 38.7845 35.605 38.7811C31.8404 38.7775 29.4732 36.8604 29.4762 33.7773ZM36.3573 32.778C36.3562 33.9138 37.2968 34.4665 38.6923 34.4678C40.0878 34.4692 41.7111 33.9191 43.6274 32.2658L43.6292 30.4809L42.9476 30.4802C38.1121 30.4755 36.3589 31.2202 36.3573 32.778ZM53.9572 38.0526L53.9751 19.6839L61.2447 19.691L61.24 24.5266C62.6066 20.8282 65.4642 19.1434 69.099 19.147C73.5127 19.1513 75.9442 21.6526 75.9395 26.4882L75.9282 38.074L68.3016 38.0666L68.3116 27.9087C68.3135 25.8641 67.1463 24.7595 65.2965 24.7577C63.7711 24.7562 62.4398 25.5014 61.5944 27.1232L61.5838 38.0601L53.9572 38.0526ZM87.3861 19.0675C90.6964 19.0707 93.4535 20.5013 94.9437 23.2938L94.9544 12.3245L102.581 12.332L102.556 38.1L94.9292 38.0926L94.9327 34.4902C93.2099 37.3769 90.7744 38.835 87.4642 38.8317C82.0769 38.8265 78.4137 34.7338 78.4193 28.9895C78.4249 23.1803 81.9339 19.0621 87.3861 19.0675ZM90.5294 23.8737C87.9656 23.8712 86.4709 25.752 86.4679 28.8351C86.4649 31.8857 87.956 33.737 90.5198 33.7395C92.9538 33.7419 94.6107 31.9261 94.6136 28.9728L94.6139 28.6808C94.6168 25.695 93.0608 23.8761 90.5294 23.8737ZM105.136 29.048C105.142 22.8169 109.592 19.0242 116.927 19.0314C123.32 19.0376 127.503 22.5142 127.498 27.9015L127.496 30.2382L112.535 30.2236C113.311 32.6583 115.711 33.9588 119.638 33.9626C122.105 33.965 124.831 33.4809 127.461 32.6721L127.099 37.3126C124.632 38.2838 121.905 38.8653 118.465 38.862C110.125 38.8538 105.13 35.1493 105.136 29.048ZM120.229 27.3102C120.166 24.9735 118.869 23.6417 116.468 23.6393C114.001 23.6369 112.54 24.9985 112.473 27.3027L120.229 27.3102ZM130.111 12.3588L137.737 12.3663L137.712 38.1343L130.086 38.1269L130.111 12.3588ZM140.021 33.8852C140.025 29.796 144.084 27.6581 153.365 27.6671L154.177 27.6679L154.177 27.3109C154.179 25.2663 152.46 24.1288 149.02 24.1254C146.748 24.1232 144.703 24.4782 141.522 25.4812L141.527 20.6781C143.897 19.7068 147.208 19.0609 150.55 19.0642C157.69 19.0712 161.614 22.223 161.608 27.9997L161.598 38.1576L154.394 38.1506L154.397 34.5483C152.48 37.2725 149.622 38.8924 146.15 38.889C142.385 38.8853 140.018 36.9682 140.021 33.8852ZM146.902 32.8858C146.901 34.0217 147.842 34.5743 149.237 34.5757C150.633 34.577 152.256 34.0269 154.172 32.3737L154.174 30.5887L153.492 30.5881C148.657 30.5833 146.904 31.3281 146.902 32.8858Z" fill="black"/>
<path d="M102.199 50.3069C102.199 51.3543 101.856 52.198 101.169 52.8381C100.483 53.4781 99.4529 53.7981 98.0797 53.7981H95.6184V59H94.3965V46.7983H98.0797C99.4413 46.7983 100.465 47.1183 101.152 47.7583C101.85 48.3984 102.199 49.2479 102.199 50.3069ZM98.0797 52.7508C99.9882 52.7508 100.943 51.9362 100.943 50.3069C100.943 49.4923 100.716 48.8755 100.262 48.4566C99.8079 48.0376 99.0805 47.8282 98.0797 47.8282H95.6184V52.7508H98.0797ZM108.422 59.1397C107.526 59.1397 106.717 58.9419 105.995 58.5462C105.285 58.1389 104.721 57.5686 104.302 56.8355C103.895 56.0907 103.691 55.2237 103.691 54.2345C103.691 53.2454 103.9 52.3842 104.319 51.651C104.738 50.9062 105.309 50.336 106.03 49.9403C106.752 49.533 107.56 49.3294 108.457 49.3294C109.353 49.3294 110.161 49.533 110.883 49.9403C111.616 50.336 112.186 50.9062 112.594 51.651C113.013 52.3842 113.222 53.2454 113.222 54.2345C113.222 55.2121 113.013 56.0732 112.594 56.818C112.175 57.5628 111.599 58.1389 110.865 58.5462C110.132 58.9419 109.318 59.1397 108.422 59.1397ZM108.422 58.0749C109.05 58.0749 109.632 57.9352 110.167 57.6559C110.703 57.365 111.133 56.9344 111.459 56.3642C111.796 55.7823 111.965 55.0724 111.965 54.2345C111.965 53.3966 111.802 52.6926 111.476 52.1224C111.151 51.5405 110.72 51.1099 110.185 50.8306C109.649 50.5397 109.067 50.3942 108.439 50.3942C107.811 50.3942 107.229 50.5397 106.693 50.8306C106.158 51.1099 105.728 51.5405 105.402 52.1224C105.087 52.6926 104.93 53.3966 104.93 54.2345C104.93 55.0724 105.087 55.7823 105.402 56.3642C105.728 56.9344 106.152 57.365 106.676 57.6559C107.211 57.9352 107.793 58.0749 108.422 58.0749ZM116.671 51.1623C116.939 50.5688 117.346 50.1091 117.893 49.7832C118.452 49.4574 119.133 49.2945 119.936 49.2945V50.5688H119.604C118.72 50.5688 118.01 50.8073 117.474 51.2845C116.939 51.7616 116.671 52.5588 116.671 53.6759V59H115.449V49.469H116.671V51.1623ZM123.362 50.4989V56.4165C123.362 56.9984 123.473 57.3999 123.694 57.621C123.915 57.8421 124.305 57.9527 124.864 57.9527H125.981V59H124.672C123.81 59 123.17 58.8022 122.751 58.4065C122.332 57.9992 122.123 57.3359 122.123 56.4165V50.4989H120.796V49.469H122.123V47.0776H123.362V49.469H125.981V50.4989H123.362ZM131.749 50.4989H129.532V59H128.31V50.4989H126.984V49.469H128.31V48.8057C128.31 47.77 128.572 47.0077 129.096 46.519C129.631 46.0302 130.492 45.7858 131.679 45.7858V46.8332C130.888 46.8332 130.329 46.9845 130.003 47.287C129.689 47.5896 129.532 48.0958 129.532 48.8057V49.469H131.749V50.4989ZM137.845 59.1397C136.949 59.1397 136.14 58.9419 135.418 58.5462C134.708 58.1389 134.144 57.5686 133.725 56.8355C133.318 56.0907 133.114 55.2237 133.114 54.2345C133.114 53.2454 133.323 52.3842 133.742 51.651C134.161 50.9062 134.732 50.336 135.453 49.9403C136.175 49.533 136.983 49.3294 137.88 49.3294C138.776 49.3294 139.584 49.533 140.306 49.9403C141.039 50.336 141.609 50.9062 142.017 51.651C142.436 52.3842 142.645 53.2454 142.645 54.2345C142.645 55.2121 142.436 56.0732 142.017 56.818C141.598 57.5628 141.022 58.1389 140.288 58.5462C139.555 58.9419 138.741 59.1397 137.845 59.1397ZM137.845 58.0749C138.473 58.0749 139.055 57.9352 139.59 57.6559C140.126 57.365 140.556 56.9344 140.882 56.3642C141.219 55.7823 141.388 55.0724 141.388 54.2345C141.388 53.3966 141.225 52.6926 140.899 52.1224C140.574 51.5405 140.143 51.1099 139.608 50.8306C139.072 50.5397 138.49 50.3942 137.862 50.3942C137.234 50.3942 136.652 50.5397 136.116 50.8306C135.581 51.1099 135.151 51.5405 134.825 52.1224C134.51 52.6926 134.353 53.3966 134.353 54.2345C134.353 55.0724 134.51 55.7823 134.825 56.3642C135.151 56.9344 135.575 57.365 136.099 57.6559C136.634 57.9352 137.216 58.0749 137.845 58.0749ZM146.094 46.0826V59H144.872V46.0826H146.094ZM149.472 47.6711C149.228 47.6711 149.019 47.5838 148.844 47.4092C148.669 47.2347 148.582 47.0194 148.582 46.7633C148.582 46.5073 148.669 46.2979 148.844 46.1349C149.019 45.9604 149.228 45.8731 149.472 45.8731C149.717 45.8731 149.926 45.9604 150.101 46.1349C150.275 46.2979 150.363 46.5073 150.363 46.7633C150.363 47.0194 150.275 47.2347 150.101 47.4092C149.926 47.5838 149.717 47.6711 149.472 47.6711ZM150.083 49.469V59H148.861V49.469H150.083ZM157.022 59.1397C156.126 59.1397 155.318 58.9419 154.596 58.5462C153.886 58.1389 153.322 57.5686 152.903 56.8355C152.495 56.0907 152.292 55.2237 152.292 54.2345C152.292 53.2454 152.501 52.3842 152.92 51.651C153.339 50.9062 153.909 50.336 154.631 49.9403C155.352 49.533 156.161 49.3294 157.057 49.3294C157.953 49.3294 158.762 49.533 159.484 49.9403C160.217 50.336 160.787 50.9062 161.194 51.651C161.613 52.3842 161.823 53.2454 161.823 54.2345C161.823 55.2121 161.613 56.0732 161.194 56.818C160.775 57.5628 160.199 58.1389 159.466 58.5462C158.733 58.9419 157.918 59.1397 157.022 59.1397ZM157.022 58.0749C157.651 58.0749 158.233 57.9352 158.768 57.6559C159.303 57.365 159.734 56.9344 160.06 56.3642C160.397 55.7823 160.566 55.0724 160.566 54.2345C160.566 53.3966 160.403 52.6926 160.077 52.1224C159.751 51.5405 159.321 51.1099 158.785 50.8306C158.25 50.5397 157.668 50.3942 157.04 50.3942C156.411 50.3942 155.83 50.5397 155.294 50.8306C154.759 51.1099 154.328 51.5405 154.002 52.1224C153.688 52.6926 153.531 53.3966 153.531 54.2345C153.531 55.0724 153.688 55.7823 154.002 56.3642C154.328 56.9344 154.753 57.365 155.277 57.6559C155.812 57.9352 156.394 58.0749 157.022 58.0749Z" fill="black"/>
</svg>
