<svg width="256" height="214" viewBox="0 0 256 214" fill="none" xmlns="http://www.w3.org/2000/svg">
<g clip-path="url(#clip0_4_9)">
<path d="M240.86 162.892C241.522 164.611 240.979 166.05 239.511 167.231C225.756 178.303 211.32 188.346 195.606 196.473L182.486 203.248C185.192 205.409 188.247 206.017 191.489 205.896C195.039 205.763 198.013 204.133 200.76 202.038C204.042 199.534 207.146 196.764 210.595 194.519C218.945 189.084 227.944 189.575 235.843 195.704C239.198 198.308 242.282 201.282 245.763 203.692C247.446 204.857 249.601 205.493 251.667 205.949L252.124 206.048C254.631 206.576 256.155 207.839 255.987 210.003C255.822 212.151 254.12 213.406 251.55 213.24C246.105 212.888 241.837 210.079 237.837 206.684C235.339 204.564 232.926 202.304 230.231 200.465C225.232 197.056 219.928 196.957 214.835 200.23C211.834 202.159 209.105 204.519 206.296 206.738C201.769 210.316 196.883 212.95 190.922 213.04C184.384 213.139 179.123 210.205 174.302 206.174C172.578 204.732 170.871 203.269 169.114 201.868C162.528 196.614 155.78 196.617 149.171 201.872C148.401 202.484 147.639 203.107 146.879 203.732L145.359 204.982C144.091 206.023 142.818 207.056 141.51 208.044C133.42 214.159 124.155 214.451 115.772 208.725C112.721 206.642 109.941 204.164 107.032 201.872C100.422 196.667 94.9358 196.683 88.2082 201.85L87.6578 202.274L86.0081 203.549C83.8072 205.249 81.593 206.934 79.2684 208.445C70.5077 214.141 61.5912 213.903 52.8844 208.398C49.2814 206.12 45.9919 203.346 42.5791 200.767L42.0662 200.381C40.7041 199.364 39.3584 198.322 37.9599 197.357C36.0092 196.011 33.9097 195.635 31.7978 196.917C28.0661 199.183 24.378 201.521 20.682 203.845C17.1891 206.041 13.8139 208.455 10.1817 210.387C8.21426 211.433 5.84967 211.92 3.60651 212.207C1.51908 212.473 0.0829625 210.923 0.00346201 208.967C-0.0748963 207.041 1.18319 205.831 3.13813 205.275L3.25168 205.244C5.33036 204.688 7.47068 203.982 9.27366 202.849C14.3613 199.65 19.2907 196.2 24.2774 192.841C24.4185 192.746 24.5009 192.565 24.6701 192.348L21.5745 186.494C20.5415 184.54 19.509 182.584 18.4822 180.624C16.6811 177.186 17.8532 174.88 21.7191 174.603C32.1417 173.859 42.572 173.22 52.9997 172.549L113.02 168.697C127.207 167.784 141.393 166.862 155.579 165.947C175.585 164.656 195.592 163.367 215.598 162.078C220.918 161.735 226.239 161.401 231.558 161.053L236.877 160.7C238.71 160.577 240.18 161.13 240.86 162.892ZM225.639 168.971L225.461 168.534L26.8542 181.321L27.3445 182.237C28.6322 184.649 29.7717 186.828 31.0174 188.943C31.1322 189.138 31.5337 189.178 31.9546 189.192L32.3845 189.203C32.4286 189.204 32.4717 189.206 32.5137 189.208L32.6355 189.215C34.3615 189.342 36.2484 189.038 37.7808 189.643C40.2274 190.609 42.5647 191.992 44.7218 193.519C48.5819 196.252 52.1525 199.4 56.0615 202.055C63.0069 206.771 69.5482 206.631 76.3805 201.849C79.2644 199.831 81.9991 197.601 84.8557 195.543C93.7882 189.108 102.25 189.241 110.969 195.96C113.517 197.924 115.946 200.042 118.49 202.011C124.867 206.949 131.338 206.967 137.683 202.062C139.796 200.429 141.808 198.665 143.882 196.98C153.288 189.339 162.822 188.602 172.071 195.417L172.351 195.625C175.312 197.857 177.515 197.745 180.465 196.274L181.901 195.556C195.058 188.959 207.966 181.949 219.883 173.238C221.811 171.828 223.721 170.394 225.639 168.971ZM41.218 0.675205C62.7141 10.3732 82.0182 23.4189 99.5626 39.0991C121.394 58.611 138.599 81.6512 151.307 108.002C157.995 121.872 163.197 136.278 165.587 151.574L165.701 152.324L165.875 153.522C165.878 156.481 163.507 158.221 161.035 157.222C148.763 152.263 136.091 148.824 122.996 146.86C105.691 144.264 88.6032 144.91 71.7786 149.975C60.6216 153.335 50.009 157.917 40.1466 164.17C38.3257 165.325 36.3951 165.123 35.2062 163.71C33.9714 162.243 33.9732 160.472 35.3995 158.923C45.7032 147.736 51.6978 134.301 55.6729 119.855C59.5564 105.74 60.9742 91.3171 60.1045 76.7255C59.451 65.7581 56.8205 55.1462 53.3787 44.7287C48.9263 31.2519 43.1479 18.3695 36.1814 6.01195C35.0432 3.99271 35.0644 2.41948 36.2149 1.12704C37.406 -0.210606 38.9398 -0.352832 41.218 0.675205ZM107.488 25.8667C109.481 26.448 112.166 27.0216 114.692 28.0044C124.775 31.9291 133.462 38.1561 141.738 44.9588C155.188 56.0149 167.503 68.2437 178.517 81.7307C186.182 91.118 192.47 101.444 198.203 112.102C204.704 124.189 210.302 136.684 215.054 149.556L215.384 150.455C215.509 150.797 215.638 151.138 215.754 151.483C216.254 152.971 216.192 154.411 215.026 155.548C213.835 156.709 212.408 156.786 210.901 156.196L210.796 156.154C208.636 155.266 206.447 154.447 204.291 153.55L203.369 153.161C197.303 150.557 191.069 150.037 184.649 151.495C184.057 151.63 183.457 151.732 182.857 151.824C180.475 152.191 178.988 151.26 178.338 148.953C172.084 126.768 163.268 105.643 152.107 85.4869L151.549 84.4835C144.353 71.6255 136.115 59.5349 125.409 49.2621C119.088 43.1963 112.436 37.5408 105.089 32.7376C103.387 31.6246 102.749 30.0802 103.31 28.3943C103.861 26.7357 105.149 26.0847 107.488 25.8667ZM47.6451 11.7889C47.6659 12.3501 47.8162 12.7885 48.02 13.1998C52.692 22.6225 56.7545 32.3007 60.0541 42.2875C63.1842 51.7619 65.5849 61.4183 66.7344 71.3475C68.0213 82.4623 67.4918 93.5475 65.9671 104.602C63.9595 119.16 59.9221 133.084 52.9582 146.089L52.1483 147.604C51.7427 148.365 51.335 149.13 50.9203 149.907C51.1774 149.976 51.3076 150.06 51.3915 150.026C52.1249 149.736 52.8546 149.437 53.5767 149.12C68.3568 142.632 83.7581 138.714 99.9335 138.311C118.404 137.852 136.294 141.181 153.764 146.981L154.957 147.377C155.821 147.661 156.743 147.953 157.937 148.34C150.86 117.362 136.189 90.7351 116.415 66.7828C97.3519 43.693 74.1662 25.6511 47.6451 11.7889ZM135.409 49.3478L135.643 49.6125L136.108 50.131C136.287 50.3332 136.451 50.5235 136.604 50.7219C137.688 52.1266 138.796 53.5155 139.909 54.9013L141.728 57.1632C144.46 60.5674 147.157 63.9946 149.53 67.6336C164.535 90.6474 175.569 115.532 183.612 141.757L183.855 142.552C184.273 143.925 184.847 144.311 186.185 144.109L186.278 144.094C192.295 143.092 198.176 143.613 203.878 145.809L204.173 145.924C204.718 146.14 205.3 146.26 206.356 146.569C198.631 127.294 189.501 109.352 177.948 92.6274C167.958 78.1645 141.207 52.4877 135.409 49.3478Z" fill="#1A222D"/>
</g>
<defs>
<clipPath id="clip0_4_9">
<rect width="256" height="214" fill="white"/>
</clipPath>
</defs>
</svg>
