<svg width="94" height="42" viewBox="0 0 94 42" fill="none" xmlns="http://www.w3.org/2000/svg">
<path fill-rule="evenodd" clip-rule="evenodd" d="M20.6319 23.2386V24.4875L20.6239 24.4856C20.578 28.302 20.3366 31.0604 19.9047 33.1023C19.4185 35.4005 18.6736 36.8738 17.6187 37.9272C14.7285 40.8134 11.9497 41.502 9.66328 40.9681C7.47966 40.4583 5.93768 38.8639 5.42425 37.5513C4.54782 35.3108 4.70539 33.2212 5.53455 31.3702C6.34783 29.5547 7.78249 28.0176 9.39509 26.7582C11.4038 25.1895 13.7928 23.9712 15.9068 23.132C12.9496 22.0579 9.41232 20.3654 6.5002 18.1104C4.41884 16.4987 2.58845 14.5473 1.55533 12.2604C0.505806 9.93729 0.304956 7.31858 1.41725 4.49909C2.04967 2.89602 3.97767 0.908122 6.71884 0.27348C9.56162 -0.384689 13.0759 0.443968 16.7913 4.12284C18.1096 5.42825 19.0616 7.27159 19.6888 10.2113C20.2619 12.8974 20.5783 16.5679 20.6257 21.7113L20.632 21.7097V23.1C20.632 23.1463 20.632 23.1925 20.6319 23.2386ZM3.45438 5.30274C2.56888 7.54734 2.73429 9.55094 3.55105 11.3588C4.3842 13.2031 5.92009 14.8915 7.84098 16.3789C11.1559 18.9458 15.4135 20.7579 18.4352 21.6666C18.3863 16.6199 18.0739 13.1371 17.5471 10.6682C16.9756 7.98994 16.1696 6.58909 15.2504 5.67898C11.9336 2.39473 9.15472 1.95737 7.21279 2.40697C5.16924 2.8801 3.82087 4.37377 3.45438 5.30274ZM23.6843 22.3238V10.4106H25.8567V22.3238H23.6843ZM24.7822 8.51848C24.3928 8.51848 24.0502 8.37833 23.7543 8.09802C23.474 7.80213 23.3339 7.45953 23.3339 7.07021C23.3339 6.68089 23.474 6.34608 23.7543 6.06577C24.0502 5.76988 24.3928 5.62194 24.7822 5.62194C25.1715 5.62194 25.5063 5.76988 25.7866 6.06577C26.0825 6.34608 26.2304 6.68089 26.2304 7.07021C26.2304 7.45953 26.0825 7.80213 25.7866 8.09802C25.5063 8.37833 25.1715 8.51848 24.7822 8.51848ZM29.9511 22.3238V12.256H27.8721V10.4106H29.9511V8.65864C29.9511 7.59969 30.247 6.77433 30.8388 6.18256C31.4461 5.57522 32.2792 5.27156 33.3382 5.27156H36.2814V7.11693H33.7587C33.2292 7.11693 32.8243 7.26487 32.544 7.56076C32.2637 7.85664 32.1235 8.26932 32.1235 8.79879V10.4106H35.8143V12.256H32.1235V22.3238H29.9511ZM41.8008 22.3238C40.7418 22.3238 39.9087 22.0201 39.3013 21.4128C38.7096 20.8054 38.4137 19.9801 38.4137 18.9367V12.256H36.3581V10.4106H38.4137V7.4206H40.5627V10.4106H44.6506V12.256H40.5627V18.7965C40.5627 19.3104 40.7029 19.7231 40.9832 20.0346C41.2791 20.3304 41.684 20.4784 42.1979 20.4784H44.6039V22.3238H41.8008ZM52.49 22.6041C51.2753 22.6041 50.2008 22.3316 49.2664 21.7865C48.332 21.2259 47.5923 20.4784 47.0473 19.544C46.5022 18.5941 46.2297 17.5351 46.2297 16.3672C46.2297 15.1992 46.5022 14.148 47.0473 13.2137C47.5923 12.2637 48.332 11.5162 49.2664 10.9712C50.2008 10.4106 51.2753 10.1303 52.49 10.1303C53.7047 10.1303 54.7792 10.4106 55.7136 10.9712C56.6635 11.5162 57.4032 12.256 57.9327 13.1903C58.4777 14.1247 58.7502 15.1836 58.7502 16.3672C58.7502 17.5351 58.4777 18.5941 57.9327 19.544C57.4032 20.4784 56.6635 21.2259 55.7136 21.7865C54.7792 22.3316 53.7047 22.6041 52.49 22.6041ZM52.49 20.7587C53.3153 20.7587 54.0317 20.564 54.639 20.1747C55.2464 19.7854 55.7213 19.2637 56.0639 18.6097C56.4065 17.94 56.5778 17.1925 56.5778 16.3672C56.5778 15.5418 56.4065 14.8021 56.0639 14.148C55.7213 13.4784 55.2464 12.9489 54.639 12.5596C54.0317 12.1703 53.3153 11.9756 52.49 11.9756C51.6802 11.9756 50.9638 12.1703 50.3409 12.5596C49.7336 12.9489 49.2586 13.4784 48.916 14.148C48.5734 14.8021 48.4021 15.5418 48.4021 16.3672C48.4021 17.1925 48.5734 17.94 48.916 18.6097C49.2586 19.2637 49.7336 19.7854 50.3409 20.1747C50.9638 20.564 51.6802 20.7587 52.49 20.7587ZM67.5328 10.1303C68.436 10.1303 69.2613 10.2782 70.0088 10.5741C70.7563 10.8544 71.4026 11.2749 71.9476 11.8355C72.4927 12.3961 72.9132 13.0735 73.209 13.8677C73.5205 14.6464 73.6762 15.5262 73.6762 16.5073C73.6762 17.7376 73.4193 18.8121 72.9054 19.7309C72.407 20.6497 71.7218 21.3583 70.8498 21.8566C69.9777 22.3549 68.9888 22.6041 67.8831 22.6041C67.2758 22.6041 66.6918 22.5029 66.1312 22.3004C65.5862 22.098 65.0956 21.8176 64.6596 21.4595C64.2391 21.0857 63.8965 20.6653 63.6318 20.1981H63.5851V27.4628H61.436V16.4373C61.436 15.098 61.7007 13.9612 62.2302 13.0268C62.7753 12.0924 63.5072 11.3761 64.426 10.8778C65.3448 10.3794 66.3804 10.1303 67.5328 10.1303ZM67.5328 11.9756C66.8164 11.9756 66.1546 12.1547 65.5472 12.5129C64.9555 12.8711 64.4805 13.3772 64.1223 14.0313C63.7797 14.6853 63.6084 15.4562 63.6084 16.3438C63.6084 17.247 63.7797 18.0335 64.1223 18.7031C64.4805 19.3571 64.9555 19.8633 65.5472 20.2214C66.1546 20.5796 66.8242 20.7587 67.5561 20.7587C68.3036 20.7587 68.9732 20.5718 69.565 20.1981C70.1568 19.8243 70.624 19.3104 70.9666 18.6564C71.3247 18.0023 71.5038 17.2392 71.5038 16.3672C71.5038 15.464 71.3247 14.6853 70.9666 14.0313C70.6084 13.3772 70.1256 12.8711 69.5183 12.5129C68.9265 12.1547 68.2647 11.9756 67.5328 11.9756ZM76.4249 22.3238V10.4106H78.5974V22.3238H76.4249ZM77.5228 8.51848C77.1335 8.51848 76.7909 8.37833 76.495 8.09802C76.2147 7.80213 76.0746 7.45953 76.0746 7.07021C76.0746 6.68089 76.2147 6.34608 76.495 6.06577C76.7909 5.76988 77.1335 5.62194 77.5228 5.62194C77.9121 5.62194 78.247 5.76988 78.5273 6.06577C78.8232 6.34608 78.9711 6.68089 78.9711 7.07021C78.9711 7.45953 78.8232 7.80213 78.5273 8.09802C78.247 8.37833 77.9121 8.51848 77.5228 8.51848ZM86.9432 22.6041C85.7908 22.6041 84.7941 22.3316 83.9532 21.7865C83.1122 21.2259 82.466 20.4706 82.0144 19.5207C81.5628 18.5707 81.3369 17.5196 81.3369 16.3672C81.3369 15.1992 81.5861 14.148 82.0844 13.2137C82.5828 12.2637 83.2991 11.5162 84.2335 10.9712C85.1679 10.4106 86.2891 10.1303 87.5972 10.1303C88.8586 10.1303 89.9409 10.4028 90.8441 10.9478C91.7474 11.4929 92.4403 12.2326 92.9231 13.167C93.4214 14.1013 93.6706 15.1447 93.6706 16.2971V22.3238H91.4982V19.8944H91.4515C91.2179 20.346 90.8986 20.7821 90.4937 21.2025C90.1044 21.6074 89.6139 21.9422 89.0221 22.207C88.4304 22.4717 87.7374 22.6041 86.9432 22.6041ZM87.5038 20.7587C88.2824 20.7587 88.9676 20.5718 89.5594 20.1981C90.1667 19.8088 90.6339 19.2793 90.9609 18.6097C91.3035 17.9245 91.4748 17.1614 91.4748 16.3205C91.4748 15.4951 91.3113 14.7554 90.9843 14.1013C90.6728 13.4473 90.2212 12.9334 89.6295 12.5596C89.0377 12.1703 88.3447 11.9756 87.5505 11.9756C86.7096 11.9756 85.9854 12.1703 85.3781 12.5596C84.7863 12.9489 84.3269 13.4784 83.9999 14.148C83.6884 14.8021 83.5327 15.5496 83.5327 16.3905C83.5327 17.2003 83.6884 17.94 83.9999 18.6097C84.3113 19.2637 84.763 19.7854 85.3547 20.1747C85.9465 20.564 86.6628 20.7587 87.5038 20.7587ZM7.53312 32.2655C6.9334 33.6043 6.81056 35.0839 7.46369 36.7536C7.71504 37.3961 8.68154 38.4901 10.1612 38.8356C11.5381 39.157 13.5774 38.8681 16.0713 36.3777C16.7295 35.7204 17.3306 34.6887 17.7622 32.649C18.1488 30.8216 18.3851 28.2534 18.433 24.55C16.172 25.2738 13.1305 26.6197 10.743 28.4842C9.29135 29.6178 8.1487 30.8913 7.53312 32.2655Z" fill="#B6355B"/>
</svg>
