<svg width="48" height="52" viewBox="0 0 48 52" fill="none" xmlns="http://www.w3.org/2000/svg">
<path d="M13.7486 42.6201C12.2867 42.6201 11.0972 43.8095 11.0972 45.2715C11.0972 46.7334 12.2867 47.9229 13.7486 47.9229C15.2106 47.9229 16.4001 46.7334 16.4001 45.2715C16.4001 43.8095 15.2107 42.6201 13.7486 42.6201ZM13.7486 46.1422C13.2684 46.1422 12.8779 45.7515 12.8779 45.2715C12.8779 44.7914 13.2684 44.4008 13.7486 44.4008C14.2288 44.4008 14.6194 44.7914 14.6194 45.2715C14.6194 45.7515 14.2288 46.1422 13.7486 46.1422Z" fill="#FCFBFB"/>
<path d="M36.5749 44.3811H33.464V28.3637C33.464 24.9395 30.6783 22.1538 27.2541 22.1538H19.1329C9.05824 22.1538 0.861816 30.3502 0.861816 40.4249V45.272C0.861816 45.7637 1.26034 46.1623 1.75216 46.1623H7.88702C8.31807 49.0102 10.7822 51.1999 13.7485 51.1999C16.7148 51.1999 19.1788 49.0102 19.6099 46.1623L33.9506 46.1618V50.3096C33.9506 50.8013 34.3491 51.1999 34.8409 51.1999C35.3328 51.1999 35.7313 50.8013 35.7313 50.3096V46.1618H36.5749C37.0667 46.1618 37.4652 45.7631 37.4652 45.2714C37.4652 44.7797 37.0667 44.3811 36.5749 44.3811ZM13.7485 49.4192C11.4614 49.4192 9.60076 47.5585 9.60076 45.2714C9.60076 42.9843 11.4615 41.1237 13.7485 41.1237C16.0355 41.1237 17.8962 42.9844 17.8962 45.2714C17.8963 47.5585 16.0356 49.4192 13.7485 49.4192ZM31.6833 44.3818H19.6101C19.1795 41.5334 16.7151 39.343 13.7485 39.343C10.7818 39.343 8.31747 41.5334 7.8869 44.3818H2.64251V40.4251C2.64251 31.3322 10.04 23.9346 19.1329 23.9346H27.2541C29.6963 23.9346 31.6833 25.9215 31.6833 28.3638V44.3818Z" fill="#FCFBFB"/>
<path d="M46.9919 38.4354L40.9709 29.26H44.378C44.7051 29.26 45.006 29.0805 45.1615 28.7926C45.317 28.5047 45.3019 28.1548 45.1224 27.8811L40.0213 20.1074H42.1508C42.478 20.1074 42.7788 19.9279 42.9343 19.6401C43.0898 19.3522 43.0747 19.0022 42.8952 18.7286L38.2872 11.7062H40.6712C40.9983 11.7062 41.2991 11.5267 41.4547 11.2388C41.6102 10.951 41.5951 10.6009 41.4156 10.3274L35.4276 1.20189C35.2629 0.951052 34.9831 0.800049 34.6832 0.800049C34.3832 0.800049 34.1034 0.951052 33.9387 1.20189L27.9507 10.3274C27.7712 10.6009 27.7561 10.9509 27.9116 11.2388C28.0672 11.5268 28.368 11.7062 28.6951 11.7062H31.0793L26.4712 18.7286C26.2917 19.0021 26.2766 19.3521 26.4321 19.6401C26.5876 19.9281 26.8884 20.1074 27.2156 20.1074H29.3451L29.0935 20.4909C28.8238 20.902 28.9383 21.454 29.3495 21.7237C29.7605 21.9934 30.3124 21.8789 30.5823 21.4678L31.7387 19.7055C31.9182 19.432 31.9333 19.082 31.7778 18.794C31.6223 18.506 31.3214 18.3266 30.9943 18.3266H28.8648L33.4729 11.3043C33.6524 11.0307 33.6674 10.6808 33.5119 10.3928C33.3564 10.1048 33.0556 9.92541 32.7284 9.92541H30.3443L34.6833 3.31309L39.0222 9.92541H36.6382C36.3111 9.92541 36.0102 10.1049 35.8547 10.3928C35.6992 10.6807 35.7143 11.0307 35.8938 11.3043L40.5018 18.3266H38.3723C38.0451 18.3266 37.7443 18.5061 37.5888 18.794C37.4333 19.0819 37.4483 19.432 37.6278 19.7055L42.7289 27.4792H39.3219C38.9947 27.4792 38.6939 27.6587 38.5384 27.9465C38.3828 28.2344 38.3979 28.5845 38.5774 28.858L44.5984 38.0335H35.5532C35.0614 38.0335 34.6628 38.4321 34.6628 38.9238C34.6628 39.4155 35.0614 39.8142 35.5532 39.8142H46.2476C46.5748 39.8142 46.8756 39.6347 47.0311 39.3468C47.1866 39.0589 47.1714 38.7091 46.9919 38.4354Z" fill="#FCFBFB"/>
<path d="M2.00933 30.2647C2.15998 30.3636 2.32926 30.4107 2.49688 30.4107C2.78678 30.4107 3.0711 30.2692 3.24205 30.0088L9.24786 20.8562C9.42735 20.5827 9.44243 20.2327 9.28692 19.9447C9.1314 19.6567 8.83058 19.4774 8.50341 19.4774H6.37417L10.9821 12.455C11.1616 12.1815 11.1767 11.8315 11.0212 11.5435C10.8657 11.2555 10.5649 11.0762 10.2377 11.0762H7.85381L12.1928 4.46384L16.5317 11.0762H14.1476C13.8205 11.0762 13.5196 11.2557 13.3641 11.5435C13.2086 11.8314 13.2237 12.1815 13.4032 12.455L18.0113 19.4774H15.8818C15.39 19.4774 14.9914 19.876 14.9914 20.3677C14.9914 20.8594 15.39 21.2581 15.8818 21.2581H19.6604C19.9876 21.2581 20.2884 21.0786 20.4439 20.7907C20.5994 20.5028 20.5844 20.1527 20.4049 19.8792L15.7968 12.8569H18.1809C18.5081 12.8569 18.8089 12.6774 18.9644 12.3895C19.1199 12.1016 19.1048 11.7515 18.9254 11.478L12.9373 2.35253C12.7727 2.10169 12.493 1.95068 12.1929 1.95068C11.8928 1.95068 11.6131 2.10169 11.4484 2.35253L5.46044 11.478C5.28094 11.7515 5.26587 12.1015 5.42138 12.3895C5.5769 12.6775 5.87771 12.8569 6.20489 12.8569H8.58888L3.98092 19.8792C3.80142 20.1528 3.78635 20.5027 3.94186 20.7907C4.09737 21.0787 4.39819 21.2581 4.72537 21.2581H6.85472L1.75362 29.0317C1.48367 29.443 1.59823 29.9949 2.00933 30.2647Z" fill="#FCFBFB"/>
<path d="M18.8153 27.696H12.9394C9.60117 27.696 6.88525 30.4118 6.88525 33.7502C6.88525 34.2419 7.28377 34.6405 7.7756 34.6405H18.8153C19.3072 34.6405 19.7057 34.2419 19.7057 33.7502V28.5864C19.7057 28.0947 19.307 27.696 18.8153 27.696ZM17.925 32.8598H8.75926C9.16989 30.9293 10.8883 29.4767 12.9394 29.4767H17.925V32.8598Z" fill="#FCFBFB"/>
<path d="M29.1431 27.696H22.7844C22.2926 27.696 21.894 28.0947 21.894 28.5864V41.47C21.894 41.9617 22.2926 42.3603 22.7844 42.3603H29.1431C29.635 42.3603 30.0335 41.9617 30.0335 41.47V28.5864C30.0335 28.0947 29.6348 27.696 29.1431 27.696ZM28.2528 40.5796H23.6747V29.4767H28.2528V40.5796Z" fill="#FCFBFB"/>
</svg>
