<svg  viewBox="0 0 182 36" fill="none" xmlns="http://www.w3.org/2000/svg">
<path d="M15.334 18.518H15.47L19.924 5.666H27.71V29.5H22.746V11.854H22.61L17.306 26.644H13.022L7.786 11.854H7.582V29.5H2.822V5.666H10.812L15.334 18.518ZM39.9649 16.274L38.9789 19.742H44.5889L43.6709 16.41C42.7529 13.112 42.2769 11.378 41.8689 9.27H41.7329C41.3249 11.31 40.8149 13.248 39.9649 16.274ZM38.2309 5.666H45.4729L52.7149 29.5H47.2749L45.7789 24.026H37.7889L36.2589 29.5H31.0229L38.2309 5.666ZM57.6821 29.5V9.95H51.7661V5.666H68.8001V9.95H62.8841V29.5H57.6821ZM74.9145 29.5V9.95H68.9985V5.666H86.0325V9.95H80.1165V29.5H74.9145ZM98.2329 25.488C100.715 25.488 102.041 24.162 102.041 20.864V5.666H107.243V20.116C107.243 27.392 102.789 29.84 97.5189 29.84C91.3649 29.84 88.7809 26.134 88.7809 21.238V5.666H93.9829V20.218C93.9829 23.618 95.1729 25.488 98.2329 25.488ZM112.656 5.666H120.408C125.678 5.666 128.67 7.672 128.67 12.67C128.67 16.818 126.426 18.756 123.638 19.3V19.436C124.896 20.048 125.678 20.932 126.8 22.938L130.438 29.5H124.25L120.306 21.748C119.864 20.898 119.218 20.626 118.13 20.626H117.79V29.5H112.656V5.666ZM117.79 9.95V16.512H119.762C122.516 16.512 123.4 15.322 123.4 13.112C123.4 10.936 122.108 9.95 119.83 9.95H117.79ZM140.172 16.274L139.186 19.742H144.796L143.878 16.41C142.96 13.112 142.484 11.378 142.076 9.27H141.94C141.532 11.31 141.022 13.248 140.172 16.274ZM138.438 5.666H145.68L152.922 29.5H147.482L145.986 24.026H137.996L136.466 29.5H131.23L138.438 5.666Z" fill="#DFDFDA"/>
<path fill-rule="evenodd" clip-rule="evenodd" d="M180.47 9.75C180.49 9.50053 180.5 9.25031 180.5 9V7.5H177.875C175.927 7.49968 174.032 8.13113 172.474 9.29955C170.916 10.468 169.779 12.1103 169.233 13.98C168.393 12.8957 167.315 12.0184 166.083 11.4151C164.851 10.8119 163.497 10.4989 162.125 10.5H159.5V12C159.5 14.3869 160.448 16.6761 162.136 18.364C163.824 20.0518 166.113 21 168.5 21H168.875V27.375C168.875 27.6734 168.994 27.9595 169.205 28.1705C169.415 28.3815 169.702 28.5 170 28.5C170.298 28.5 170.585 28.3815 170.795 28.1705C171.006 27.9595 171.125 27.6734 171.125 27.375V18H171.5C173.757 18.0003 175.932 17.1524 177.594 15.6243C179.255 14.0962 180.282 11.9995 180.47 9.75ZM171.166 15.75C171.35 14.0997 172.136 12.5753 173.374 11.4684C174.612 10.3615 176.214 9.74968 177.875 9.75H178.209C178.025 11.4003 177.239 12.9247 176.001 14.0316C174.763 15.1385 173.161 15.7503 171.5 15.75H171.166ZM162.125 12.75C163.786 12.7497 165.388 13.3615 166.626 14.4684C167.864 15.5753 168.65 17.0997 168.835 18.75H168.5C166.839 18.7503 165.237 18.1385 163.999 17.0316C162.761 15.9247 161.975 14.4003 161.79 12.75H162.125Z" fill="#FFFFFF"/>
</svg>
