<svg width="126" height="39" viewBox="0 0 126 39" fill="none" xmlns="http://www.w3.org/2000/svg">
<g clip-path="url(#clip0_139_1676)">
<path d="M13.7023 31.8516C12.61 31.8516 11.7212 32.7403 11.7212 33.8326C11.7212 34.925 12.61 35.8137 13.7023 35.8137C14.7947 35.8137 15.6835 34.925 15.6835 33.8326C15.6835 32.7403 14.7948 31.8516 13.7023 31.8516ZM13.7023 34.4832C13.3435 34.4832 13.0517 34.1913 13.0517 33.8326C13.0517 33.4739 13.3435 33.1821 13.7023 33.1821C14.0611 33.1821 14.3529 33.4739 14.3529 33.8326C14.3529 34.1913 14.0611 34.4832 13.7023 34.4832Z" fill="#FCFBFB"/>
<path d="M30.7578 33.1672H28.4334V21.1993C28.4334 18.6408 26.3519 16.5593 23.7934 16.5593H17.7254C10.1977 16.5593 4.07349 22.6836 4.07349 30.2112V33.8329C4.07349 34.2003 4.37125 34.4982 4.73874 34.4982H9.32261C9.64469 36.626 11.4858 38.2622 13.7022 38.2622C15.9186 38.2622 17.7596 36.626 18.0818 34.4982L28.7969 34.4977V37.5969C28.7969 37.9643 29.0947 38.2622 29.4622 38.2622C29.8297 38.2622 30.1274 37.9643 30.1274 37.5969V34.4977H30.7578C31.1252 34.4977 31.423 34.1999 31.423 33.8325C31.423 33.4651 31.1252 33.1672 30.7578 33.1672ZM13.7022 36.9317C11.9933 36.9317 10.6031 35.5414 10.6031 33.8325C10.6031 32.1235 11.9934 30.7333 13.7022 30.7333C15.411 30.7333 16.8013 32.1236 16.8013 33.8325C16.8014 35.5414 15.4111 36.9317 13.7022 36.9317ZM27.1028 33.1677H18.0819C17.7602 31.0394 15.9188 29.4028 13.7022 29.4028C11.4856 29.4028 9.64424 31.0394 9.32253 33.1677H5.404V30.2113C5.404 23.4173 10.9313 17.8899 17.7254 17.8899H23.7934C25.6182 17.8899 27.1028 19.3745 27.1028 21.1993V33.1677Z" fill="#FCFBFB"/>
<path d="M38.5412 28.7249L34.0424 21.8691H36.5881C36.8326 21.8691 37.0574 21.735 37.1736 21.5199C37.2898 21.3048 37.2785 21.0433 37.1444 20.8388L33.3329 15.0304H34.924C35.1685 15.0304 35.3932 14.8963 35.5094 14.6812C35.6256 14.4661 35.6144 14.2046 35.4803 14.0002L32.0372 8.75318H33.8185C34.0629 8.75318 34.2877 8.61907 34.4039 8.40397C34.5201 8.18887 34.5088 7.92729 34.3747 7.72292L29.9005 0.9045C29.7775 0.717075 29.5685 0.604248 29.3443 0.604248C29.1202 0.604248 28.9111 0.717075 28.7881 0.9045L24.3139 7.72292C24.1798 7.92729 24.1685 8.18878 24.2847 8.40397C24.4009 8.61915 24.6257 8.75318 24.8702 8.75318H26.6515L23.2084 14.0002C23.0743 14.2045 23.0631 14.466 23.1793 14.6812C23.2955 14.8964 23.5202 15.0304 23.7647 15.0304H25.3558L25.1678 15.3169C24.9663 15.6241 25.0518 16.0366 25.3591 16.2381C25.6662 16.4396 26.0785 16.354 26.2802 16.0469L27.1443 14.7301C27.2784 14.5257 27.2896 14.2642 27.1734 14.0491C27.0572 13.8339 26.8325 13.6998 26.588 13.6998H24.9969L28.44 8.45284C28.5741 8.24847 28.5854 7.98698 28.4692 7.7718C28.353 7.55661 28.1282 7.42258 27.8838 7.42258H26.1024L29.3444 2.48195L32.5864 7.42258H30.8051C30.5607 7.42258 30.3359 7.5567 30.2197 7.7718C30.1035 7.9869 30.1148 8.24847 30.2489 8.45284L33.6919 13.6998H32.1008C31.8563 13.6998 31.6315 13.834 31.5153 14.0491C31.3991 14.2642 31.4104 14.5257 31.5445 14.7301L35.356 20.5385H32.8103C32.5658 20.5385 32.3411 20.6726 32.2249 20.8877C32.1087 21.1028 32.1199 21.3644 32.254 21.5687L36.7529 28.4245H29.9944C29.6269 28.4245 29.3291 28.7224 29.3291 29.0898C29.3291 29.4572 29.6269 29.755 29.9944 29.755H37.9851C38.2295 29.755 38.4543 29.6209 38.5705 29.4058C38.6867 29.1907 38.6754 28.9293 38.5412 28.7249Z" fill="#FCFBFB"/>
<path d="M4.93067 22.6202C5.04323 22.6941 5.16972 22.7293 5.29496 22.7293C5.51157 22.7293 5.72401 22.6235 5.85174 22.4289L10.3392 15.5903C10.4733 15.3859 10.4846 15.1244 10.3684 14.9092C10.2522 14.6941 10.0274 14.56 9.78295 14.56H8.19202L11.635 9.31303C11.7691 9.10867 11.7804 8.84718 11.6642 8.63199C11.548 8.4168 11.3232 8.28278 11.0788 8.28278H9.29758L12.5396 3.34215L15.7816 8.28278H14.0002C13.7558 8.28278 13.531 8.41689 13.4148 8.63199C13.2986 8.84709 13.3099 9.10867 13.444 9.31303L16.8871 14.56H15.296C14.9285 14.56 14.6307 14.8579 14.6307 15.2253C14.6307 15.5927 14.9285 15.8905 15.296 15.8905H18.1193C18.3638 15.8905 18.5885 15.7564 18.7047 15.5413C18.8209 15.3262 18.8097 15.0647 18.6756 14.8603L15.2325 9.61329H17.0138C17.2583 9.61329 17.4831 9.47917 17.5993 9.26407C17.7155 9.04897 17.7042 8.78739 17.5701 8.58303L13.0959 1.76461C12.9729 1.57718 12.7639 1.46436 12.5397 1.46436C12.3154 1.46436 12.1065 1.57718 11.9834 1.76461L7.50929 8.58303C7.37517 8.78739 7.36391 9.04888 7.48011 9.26407C7.5963 9.47926 7.82107 9.61329 8.06553 9.61329H9.84682L6.40381 14.8603C6.2697 15.0647 6.25843 15.3261 6.37463 15.5413C6.49083 15.7565 6.71559 15.8905 6.96005 15.8905H8.55108L4.73961 21.6989C4.5379 22.0062 4.6235 22.4186 4.93067 22.6202Z" fill="#FCFBFB"/>
<path d="M17.4882 20.7004H13.0978C10.6035 20.7004 8.57422 22.7296 8.57422 25.224C8.57422 25.5914 8.87199 25.8893 9.23947 25.8893H17.4882C17.8557 25.8893 18.1534 25.5914 18.1534 25.224V21.3657C18.1534 20.9983 17.8556 20.7004 17.4882 20.7004ZM16.8229 24.5587H9.97445C10.2813 23.1163 11.5652 22.0309 13.0978 22.0309H16.8229V24.5587Z" fill="#FCFBFB"/>
<path d="M25.205 20.7004H20.4538C20.0863 20.7004 19.7886 20.9983 19.7886 21.3657V30.9921C19.7886 31.3595 20.0863 31.6574 20.4538 31.6574H25.205C25.5725 31.6574 25.8702 31.3595 25.8702 30.9921V21.3657C25.8702 20.9983 25.5724 20.7004 25.205 20.7004ZM24.5397 30.3269H21.1191V22.0309H24.5397V30.3269Z" fill="#FCFBFB"/>
</g>
<path d="M56.8358 28.4333L53.3211 21.9059H52.7939V28.4333H47.8732V10.734H55.6308C57.0534 10.734 58.2585 10.9851 59.2459 11.4872C60.2334 11.9726 60.9782 12.6504 61.4803 13.5207C61.9824 14.3743 62.2335 15.3367 62.2335 16.4079C62.2335 17.6129 61.8988 18.6757 61.2293 19.5962C60.5765 20.5 59.6142 21.1444 58.3422 21.5294L62.3339 28.4333H56.8358ZM52.7939 18.5418H55.2291C55.8986 18.5418 56.4007 18.3828 56.7354 18.0648C57.0701 17.7468 57.2375 17.2865 57.2375 16.684C57.2375 16.115 57.0618 15.6714 56.7103 15.3534C56.3756 15.0187 55.8818 14.8513 55.2291 14.8513H52.7939V18.5418ZM78.8817 14.3492V28.4333H73.936V26.4249C73.5175 27.0609 72.9401 27.5798 72.2037 27.9815C71.4673 28.3664 70.622 28.5589 69.668 28.5589C68.0278 28.5589 66.7307 28.0233 65.7767 26.9521C64.8394 25.8642 64.3708 24.3914 64.3708 22.5336V14.3492H69.2663V21.9059C69.2663 22.7093 69.4756 23.3453 69.894 23.814C70.3291 24.2658 70.8982 24.4918 71.6012 24.4918C72.3208 24.4918 72.8899 24.2658 73.3083 23.814C73.7267 23.3453 73.936 22.7093 73.936 21.9059V14.3492H78.8817ZM89.9921 24.2407V28.4333H87.8581C84.2596 28.4333 82.4604 26.6509 82.4604 23.0859V18.4414H80.7282V14.3492H82.4604V10.9349H87.4062V14.3492H89.9669V18.4414H87.4062V23.1612C87.4062 23.5462 87.4899 23.8223 87.6572 23.9897C87.8414 24.1571 88.1426 24.2407 88.561 24.2407H89.9921ZM105.705 21.2281C105.705 21.613 105.68 21.998 105.63 22.3829H96.3161C96.3663 23.1528 96.5755 23.7303 96.9437 24.1152C97.3287 24.4834 97.814 24.6675 98.3998 24.6675C99.2199 24.6675 99.8057 24.2993 100.157 23.5629H105.404C105.187 24.5336 104.76 25.404 104.124 26.1739C103.505 26.927 102.718 27.5212 101.764 27.9563C100.81 28.3915 99.7555 28.6091 98.6007 28.6091C97.2115 28.6091 95.973 28.3162 94.8851 27.7304C93.8139 27.1446 92.9687 26.3078 92.3494 25.2199C91.7469 24.132 91.4456 22.8516 91.4456 21.3787C91.4456 19.9059 91.7469 18.6339 92.3494 17.5627C92.9519 16.4748 93.7888 15.638 94.86 15.0522C95.9479 14.4664 97.1948 14.1735 98.6007 14.1735C99.9898 14.1735 101.22 14.458 102.291 15.0271C103.362 15.5961 104.199 16.4162 104.802 17.4874C105.404 18.5418 105.705 19.7887 105.705 21.2281ZM100.684 19.9979C100.684 19.3954 100.484 18.9268 100.082 18.592C99.6802 18.2405 99.1781 18.0648 98.5756 18.0648C97.973 18.0648 97.4793 18.2322 97.0943 18.5669C96.7094 18.8849 96.4583 19.3619 96.3412 19.9979H100.684ZM106.916 21.3787C106.916 19.9226 107.175 18.6506 107.694 17.5627C108.23 16.4748 108.949 15.638 109.853 15.0522C110.774 14.4664 111.795 14.1735 112.916 14.1735C113.887 14.1735 114.724 14.3659 115.427 14.7509C116.13 15.1358 116.673 15.6547 117.058 16.3074V14.3492H121.979V28.4333H117.058V26.4751C116.673 27.1279 116.121 27.6467 115.401 28.0317C114.699 28.4166 113.87 28.6091 112.916 28.6091C111.795 28.6091 110.774 28.3162 109.853 27.7304C108.949 27.1446 108.23 26.3078 107.694 25.2199C107.175 24.1152 106.916 22.8348 106.916 21.3787ZM117.058 21.3787C117.058 20.4749 116.807 19.7636 116.305 19.2448C115.82 18.7259 115.217 18.4665 114.498 18.4665C113.761 18.4665 113.15 18.7259 112.665 19.2448C112.18 19.7469 111.937 20.4582 111.937 21.3787C111.937 22.2825 112.18 23.0022 112.665 23.5378C113.15 24.0566 113.761 24.3161 114.498 24.3161C115.217 24.3161 115.82 24.0566 116.305 23.5378C116.807 23.0189 117.058 22.2993 117.058 21.3787Z" fill="#FCFBFB"/>
<defs>
<clipPath id="clip0_139_1676">
<rect width="37.6581" height="37.6581" fill="white" transform="translate(2.53271 0.604248)"/>
</clipPath>
</defs>
</svg>
