<svg width="323" height="43" viewBox="0 0 323 43" fill="none" xmlns="http://www.w3.org/2000/svg">
<path d="M38.0712 15.5405H27.9512C27.8163 14.5045 27.5397 13.5694 27.1214 12.7352C26.7031 11.9009 26.1499 11.1878 25.4617 10.5958C24.7736 10.0038 23.9572 9.55305 23.0127 9.24359C22.0817 8.92066 21.0494 8.7592 19.916 8.7592C17.9055 8.7592 16.1716 9.25031 14.7144 10.2325C13.2706 11.2147 12.1574 12.6342 11.3748 14.491C10.6057 16.3478 10.2211 18.5948 10.2211 21.232C10.2211 23.9768 10.6124 26.2776 11.395 28.1344C12.1911 29.9777 13.3043 31.3703 14.7346 32.3122C16.1784 33.2406 17.8853 33.7048 19.8553 33.7048C20.9617 33.7048 21.967 33.5635 22.871 33.2809C23.7886 32.9984 24.5914 32.588 25.2796 32.0498C25.9812 31.4982 26.5547 30.8321 27 30.0517C27.4587 29.2579 27.7758 28.3631 27.9512 27.3675L38.0712 27.428C37.8957 29.2579 37.3628 31.0609 36.4722 32.8369C35.5951 34.613 34.3875 36.2343 32.8493 37.7009C31.311 39.1541 29.4355 40.3112 27.2226 41.1723C25.0232 42.0334 22.5 42.464 19.6529 42.464C15.9018 42.464 12.542 41.6432 9.57345 40.0017C6.61843 38.3468 4.2841 35.9383 2.57046 32.7764C0.85682 29.6145 0 25.7663 0 21.232C0 16.6842 0.870314 12.8293 2.61094 9.66742C4.35157 6.50549 6.70614 4.10378 9.67465 2.46227C12.6432 0.820755 15.9692 0 19.6529 0C22.1626 0 24.4835 0.349831 26.6154 1.04949C28.7473 1.7357 30.6229 2.74482 32.2421 4.07686C33.8613 5.39546 35.1769 7.01678 36.1888 8.94085C37.2008 10.8649 37.8283 13.0648 38.0712 15.5405Z" fill="white"/>
<path fill-rule="evenodd" clip-rule="evenodd" d="M45.1245 10.0195L52.7262 2.79785L58.0474 8.11907V0.517334H68.6899V8.11907L74.3912 2.79785L81.9929 10.7797L76.2916 16.1009H83.8933V26.7433H76.2916L81.2327 32.0645L74.3912 39.6663L68.6899 33.965V41.9468H58.0474L58.4275 33.5849L52.7262 39.6663L44.3643 32.0645L50.4457 26.7433H42.4639V16.1009L50.0656 15.7208L45.1245 10.0195ZM57.6671 21.042L63.3684 15.3407L69.0697 21.042L63.3684 27.1234L57.6671 21.042Z" fill="white"/>
<path d="M126.357 15.5405H116.237C116.102 14.5045 115.826 13.5694 115.408 12.7352C114.989 11.9009 114.436 11.1878 113.748 10.5958C113.06 10.0038 112.243 9.55305 111.299 9.24359C110.368 8.92066 109.336 8.7592 108.202 8.7592C106.192 8.7592 104.458 9.25031 103 10.2325C101.557 11.2147 100.444 12.6342 99.6609 14.491C98.8918 16.3478 98.5073 18.5948 98.5073 21.232C98.5073 23.9768 98.8986 26.2776 99.6812 28.1344C100.477 29.9777 101.59 31.3703 103.021 32.3122C104.465 33.2406 106.171 33.7048 108.141 33.7048C109.248 33.7048 110.253 33.5635 111.157 33.2809C112.075 32.9984 112.878 32.588 113.566 32.0498C114.267 31.4982 114.841 30.8321 115.286 30.0517C115.745 29.2579 116.062 28.3631 116.237 27.3675L126.357 27.428C126.182 29.2579 125.649 31.0609 124.758 32.8369C123.881 34.613 122.674 36.2343 121.135 37.7009C119.597 39.1541 117.722 40.3112 115.509 41.1723C113.309 42.0334 110.786 42.464 107.939 42.464C104.188 42.464 100.828 41.6432 97.8596 40.0017C94.9046 38.3468 92.5702 35.9383 90.8566 32.7764C89.1429 29.6145 88.2861 25.7663 88.2861 21.232C88.2861 16.6842 89.1564 12.8293 90.8971 9.66742C92.6377 6.50549 94.9923 4.10378 97.9608 2.46227C100.929 0.820755 104.255 0 107.939 0C110.449 0 112.77 0.349831 114.902 1.04949C117.033 1.7357 118.909 2.74482 120.528 4.07686C122.147 5.39546 123.463 7.01678 124.475 8.94085C125.487 10.8649 126.114 13.0648 126.357 15.5405Z" fill="white"/>
<path fill-rule="evenodd" clip-rule="evenodd" d="M133.411 10.0195L141.012 2.79785L146.334 8.11907V0.517334H156.976V8.11907L162.677 2.79785L170.279 10.7797L164.578 16.1009H172.179V26.7433H164.578L169.519 32.0645L162.677 39.6663L156.976 33.965V41.9468H146.334L146.714 33.5849L141.012 39.6663L132.65 32.0645L138.732 26.7433H130.75V16.1009L138.352 15.7208L133.411 10.0195ZM145.954 21.042L151.655 15.3407L157.356 21.042L151.655 27.1234L145.954 21.042Z" fill="white"/>
<path d="M176.573 40.9997V35.5558L196.346 9.22461H176.593V1.46423H208.787V6.90808L189.013 33.2393H208.767V40.9997H176.573Z" fill="#5BF7DF"/>
<path d="M251.25 21.232C251.25 25.7798 250.406 29.6346 248.719 32.7966C247.031 35.9585 244.746 38.3602 241.864 40.0017C238.995 41.6432 235.775 42.464 232.205 42.464C228.622 42.464 225.396 41.6365 222.527 39.9815C219.657 38.3266 217.379 35.9249 215.691 32.7764C214.017 29.6145 213.179 25.7663 213.179 21.232C213.179 16.6842 214.017 12.8293 215.691 9.66742C217.379 6.50549 219.657 4.10378 222.527 2.46227C225.396 0.820755 228.622 0 232.205 0C235.775 0 238.995 0.820755 241.864 2.46227C244.746 4.10378 247.031 6.50549 248.719 9.66742C250.406 12.8293 251.25 16.6842 251.25 21.232ZM241.397 21.232C241.397 18.541 241.027 16.2671 240.287 14.4103C239.56 12.5535 238.508 11.1475 237.132 10.1922C235.769 9.23686 234.126 8.7592 232.205 8.7592C230.297 8.7592 228.654 9.23686 227.278 10.1922C225.902 11.1475 224.844 12.5535 224.104 14.4103C223.377 16.2671 223.013 18.541 223.013 21.232C223.013 23.923 223.377 26.1969 224.104 28.0537C224.844 29.9105 225.902 31.3165 227.278 32.2718C228.654 33.2271 230.297 33.7048 232.205 33.7048C234.126 33.7048 235.769 33.2271 237.132 32.2718C238.508 31.3165 239.56 29.9105 240.287 28.0537C241.027 26.1969 241.397 23.923 241.397 21.232Z" fill="#5BF7DF"/>
<path d="M290.786 1.46423V40.9997H282.318L265.885 18.1818H265.623V40.9997H255.643V1.46423H264.232L280.483 24.2434H280.826V1.46423H290.786Z" fill="#5BF7DF"/>
<path d="M295.179 40.9997V1.46423H323V9.22461H304.823V17.3325H321.578V25.1121H304.823V33.2393H323V40.9997H295.179Z" fill="#5BF7DF"/>
</svg>
