<svg width="775" height="342" viewBox="0 0 775 342" fill="none" xmlns="http://www.w3.org/2000/svg">
<path fill-rule="evenodd" clip-rule="evenodd" d="M166.238 191.812V203.368L166.171 203.352C165.789 235.135 163.778 258.107 160.181 275.112C156.132 294.251 149.929 306.521 141.143 315.294C117.074 339.331 93.932 345.065 74.8902 340.619C56.705 336.373 43.8633 323.095 39.5874 312.164C32.2885 293.504 33.6008 276.102 40.506 260.687C47.2791 245.567 59.227 232.766 72.6567 222.278C89.3858 209.214 109.281 199.068 126.887 192.079C102.259 183.134 72.8008 169.038 48.5487 150.259C31.215 136.837 15.9714 120.585 7.36759 101.54C-1.37286 82.1929 -3.04555 60.3841 6.21769 36.9033C11.4845 23.5529 27.5409 6.99764 50.3695 1.71232C74.0443 -3.76894 103.311 3.13217 134.253 33.77C145.232 44.6414 153.16 59.9928 158.384 84.4746C163.157 106.845 165.792 137.413 166.186 180.247L166.238 180.234V191.525C166.238 191.621 166.238 191.717 166.238 191.812ZM23.183 43.5962C15.8085 62.2893 17.1861 78.9753 23.988 94.0316C30.9265 109.39 43.7175 123.451 59.7147 135.839C87.3217 157.216 122.779 172.307 147.944 179.875C147.536 137.846 144.935 108.841 140.548 88.2803C135.789 65.9753 129.075 54.309 121.421 46.7296C93.7979 19.3782 70.6557 15.7358 54.4832 19.4801C37.4644 23.4203 26.2351 35.8597 23.183 43.5962ZM191.659 183.491V84.2775H209.751V183.491H191.659ZM200.802 68.5201C197.56 68.5201 194.707 67.3528 192.242 65.0184C189.908 62.5543 188.741 59.7011 188.741 56.4588C188.741 53.2165 189.908 50.4282 192.242 48.0937C194.707 45.6296 197.56 44.3976 200.802 44.3976C204.044 44.3976 206.833 45.6296 209.167 48.0937C211.631 50.4282 212.863 53.2165 212.863 56.4588C212.863 59.7011 211.631 62.5543 209.167 65.0184C206.833 67.3528 204.044 68.5201 200.802 68.5201ZM243.849 183.491V99.6458H226.535V84.2775H243.849V69.6873C243.849 60.8683 246.313 53.9947 251.242 49.0664C256.299 44.0085 263.238 41.4795 272.057 41.4795H296.569V56.8479H275.559C271.149 56.8479 267.777 58.0799 265.443 60.5441C263.108 63.0082 261.941 66.445 261.941 70.8545V84.2775H292.678V99.6458H261.941V183.491H243.849ZM342.534 183.491C333.715 183.491 326.776 180.962 321.718 175.904C316.79 170.846 314.326 163.973 314.326 155.283V99.6458H297.207V84.2775H314.326V59.3768H332.223V84.2775H366.267V99.6458H332.223V154.116C332.223 158.396 333.391 161.833 335.725 164.426C338.189 166.891 341.561 168.123 345.841 168.123H365.878V183.491H342.534ZM431.554 185.825C421.438 185.825 412.489 183.556 404.708 179.017C396.926 174.348 390.766 168.123 386.227 160.341C381.688 152.43 379.418 143.611 379.418 133.884C379.418 124.157 381.688 115.403 386.227 107.622C390.766 99.7107 396.926 93.4855 404.708 88.9464C412.489 84.2775 421.438 81.943 431.554 81.943C441.67 81.943 450.618 84.2775 458.4 88.9464C466.311 93.4855 472.471 99.6458 476.881 107.427C481.42 115.209 483.69 124.028 483.69 133.884C483.69 143.611 481.42 152.43 476.881 160.341C472.471 168.123 466.311 174.348 458.4 179.017C450.618 183.556 441.67 185.825 431.554 185.825ZM431.554 170.457C438.427 170.457 444.393 168.836 449.451 165.594C454.509 162.351 458.465 158.007 461.318 152.56C464.171 146.983 465.598 140.758 465.598 133.884C465.598 127.011 464.171 120.85 461.318 115.403C458.465 109.827 454.509 105.417 449.451 102.175C444.393 98.9325 438.427 97.3114 431.554 97.3114C424.81 97.3114 418.844 98.9325 413.657 102.175C408.599 105.417 404.643 109.827 401.79 115.403C398.937 120.85 397.51 127.011 397.51 133.884C397.51 140.758 398.937 146.983 401.79 152.56C404.643 158.007 408.599 162.351 413.657 165.594C418.844 168.836 424.81 170.457 431.554 170.457ZM556.831 81.943C564.353 81.943 571.226 83.1751 577.451 85.6392C583.677 87.9737 589.059 91.4753 593.598 96.1442C598.137 100.813 601.639 106.455 604.103 113.069C606.697 119.553 607.994 126.881 607.994 135.051C607.994 145.297 605.854 154.246 601.574 161.897C597.424 169.549 591.717 175.45 584.455 179.6C577.192 183.75 568.957 185.825 559.749 185.825C554.691 185.825 549.827 184.982 545.158 183.296C540.619 181.61 536.534 179.276 532.903 176.293C529.401 173.181 526.548 169.679 524.343 165.788H523.954V226.289H506.057V134.468C506.057 123.314 508.261 113.847 512.671 106.066C517.21 98.2841 523.306 92.3183 530.957 88.1682C538.609 84.0181 547.233 81.943 556.831 81.943ZM556.831 97.3114C550.865 97.3114 545.353 98.8029 540.295 101.786C535.367 104.769 531.411 108.984 528.428 114.431C525.575 119.878 524.148 126.297 524.148 133.69C524.148 141.212 525.575 147.761 528.428 153.338C531.411 158.785 535.367 163 540.295 165.983C545.353 168.966 550.93 170.457 557.025 170.457C563.25 170.457 568.827 168.901 573.755 165.788C578.684 162.676 582.574 158.396 585.427 152.949C588.41 147.502 589.902 141.147 589.902 133.884C589.902 126.362 588.41 119.878 585.427 114.431C582.445 108.984 578.424 104.769 573.366 101.786C568.438 98.8029 562.926 97.3114 556.831 97.3114ZM630.885 84.2775H648.977V183.491H630.885V84.2775ZM640.028 68.5201C636.786 68.5201 633.933 67.3528 631.469 65.0184C629.134 62.5543 627.967 59.7011 627.967 56.4588C627.967 53.2165 629.134 50.4282 631.469 48.0937C633.933 45.6296 636.786 44.3976 640.028 44.3976C643.271 44.3976 646.059 45.6296 648.393 48.0937C650.857 50.4282 652.09 53.2165 652.09 56.4588C652.09 59.7011 650.857 62.5543 648.393 65.0184C646.059 67.3528 643.271 68.5201 640.028 68.5201ZM718.481 185.825C708.884 185.825 700.584 183.556 693.58 179.017C686.577 174.348 681.195 168.058 677.434 160.147C673.673 152.235 671.792 143.481 671.792 133.884C671.792 124.157 673.867 115.403 678.018 107.622C682.168 99.7107 688.133 93.4855 695.915 88.9464C703.696 84.2775 713.034 81.943 723.928 81.943C734.433 81.943 743.447 84.2126 750.969 88.7518C758.491 93.291 764.262 99.4513 768.282 107.233C772.432 115.014 774.508 123.703 774.508 133.301V183.491H756.416V163.259H756.027C754.081 167.02 751.423 170.652 748.051 174.153C744.808 177.525 740.723 180.314 735.795 182.518C730.867 184.723 725.095 185.825 718.481 185.825ZM723.15 170.457C729.635 170.457 735.341 168.901 740.269 165.788C745.327 162.546 749.218 158.136 751.941 152.56C754.795 146.853 756.221 140.498 756.221 133.495C756.221 126.622 754.859 120.461 752.136 115.014C749.542 109.567 745.781 105.287 740.853 102.175C735.924 98.9325 730.153 97.3114 723.539 97.3114C716.536 97.3114 710.505 98.9325 705.447 102.175C700.519 105.417 696.693 109.827 693.97 115.403C691.376 120.85 690.079 127.075 690.079 134.079C690.079 140.823 691.376 146.983 693.97 152.56C696.563 158.007 700.324 162.351 705.253 165.594C710.181 168.836 716.147 170.457 723.15 170.457ZM57.1502 268.143C52.1557 279.293 51.1327 291.614 56.572 305.52C58.6652 310.871 66.7143 319.981 79.0371 322.859C90.5034 325.536 107.487 323.129 128.256 302.389C133.738 296.916 138.744 288.324 142.338 271.337C145.558 256.118 147.526 234.73 147.925 203.888C129.095 209.916 103.765 221.125 83.882 236.652C71.7928 246.093 62.2768 256.698 57.1502 268.143Z" fill="#B6355B"/>
</svg>
