<svg width="328" height="92" viewBox="0 0 328 92" fill="none" xmlns="http://www.w3.org/2000/svg">
<path d="M28.3963 47.2742H28.6406L36.6408 24.1896H50.626V67H41.7097V35.3044H41.4654L31.9384 61.8701H24.2435L14.8387 35.3044H14.4722V67H5.92237V24.1896H20.2739L28.3963 47.2742ZM72.6381 43.2436L70.867 49.4728H80.9437L79.2948 43.4879C77.6459 37.564 76.7909 34.4494 76.058 30.663H75.8137C75.0809 34.3273 74.1648 37.8083 72.6381 43.2436ZM69.5235 24.1896H82.5315L95.5395 67H85.7682L83.0811 57.1676H68.7296L65.9814 67H56.5765L69.5235 24.1896ZM104.462 67V31.8845H93.8353V24.1896H124.432V31.8845H113.805V67H104.462ZM135.414 67V31.8845H124.788V24.1896H155.384V31.8845H144.758V67H135.414ZM177.299 59.7937C181.757 59.7937 184.139 57.4119 184.139 51.4881V24.1896H193.482V50.1445C193.482 63.2136 185.482 67.6107 176.016 67.6107C164.962 67.6107 160.321 60.954 160.321 52.1599V24.1896H169.665V50.3278C169.665 56.4348 171.802 59.7937 177.299 59.7937ZM203.206 24.1896H217.13C226.596 24.1896 231.97 27.7927 231.97 36.7701C231.97 44.2207 227.939 47.7017 222.932 48.6788V48.9231C225.191 50.0224 226.596 51.6102 228.611 55.2134L235.146 67H224.031L216.947 53.0759C216.153 51.5492 214.992 51.0606 213.038 51.0606H212.428V67H203.206V24.1896ZM212.428 31.8845V43.6711H215.97C220.916 43.6711 222.504 41.5336 222.504 37.564C222.504 33.6555 220.183 31.8845 216.092 31.8845H212.428ZM252.629 43.2436L250.858 49.4728H260.935L259.286 43.4879C257.637 37.564 256.782 34.4494 256.049 30.663H255.805C255.072 34.3273 254.156 37.8083 252.629 43.2436ZM249.514 24.1896H262.522L275.531 67H265.759L263.072 57.1676H248.721L245.972 67H236.568L249.514 24.1896Z" fill="#FDFDFD"/>
<path fill-rule="evenodd" clip-rule="evenodd" d="M324.399 31.1814C324.435 30.7333 324.453 30.2838 324.452 29.8342V27.14H319.737C316.239 27.1394 312.835 28.2736 310.036 30.3723C307.238 32.471 305.195 35.421 304.216 38.7793C302.706 36.8317 300.77 35.2558 298.557 34.1723C296.344 33.0888 293.912 32.5265 291.447 32.5285H286.732V35.2228C286.732 39.5102 288.436 43.622 291.467 46.6537C294.499 49.6854 298.611 51.3885 302.898 51.3885H303.572V62.8393C303.572 63.3752 303.785 63.8892 304.164 64.2681C304.543 64.6471 305.057 64.86 305.592 64.86C306.128 64.86 306.642 64.6471 307.021 64.2681C307.4 63.8892 307.613 63.3752 307.613 62.8393V46H308.287C312.341 46.0005 316.248 44.4775 319.232 41.7327C322.217 38.9879 324.061 35.2219 324.399 31.1814ZM307.686 41.9585C308.017 38.9943 309.43 36.2562 311.653 34.268C313.876 32.2797 316.755 31.1808 319.737 31.1814H320.338C320.007 34.1456 318.594 36.8837 316.371 38.8719C314.148 40.8602 311.269 41.9591 308.287 41.9585H307.686ZM291.447 36.57C294.43 36.5694 297.308 37.6683 299.532 39.6566C301.755 41.6448 303.168 44.3829 303.499 47.3471H302.898C299.915 47.3477 297.037 46.2488 294.814 44.2605C292.59 42.2722 291.178 39.5342 290.847 36.57H291.447Z" fill="#FDFDFD"/>
</svg>
