<svg width="328" height="106" viewBox="0 0 328 106" fill="none" xmlns="http://www.w3.org/2000/svg">
<g clip-path="url(#clip0_226_106)">
<path d="M56.508 80.018C54.1314 80.018 52.1978 81.9515 52.1978 84.3281C52.1978 86.7046 54.1314 88.6383 56.508 88.6383C58.8846 88.6383 60.8183 86.7046 60.8183 84.3281C60.8183 81.9515 58.8848 80.018 56.508 80.018ZM56.508 85.7436C55.7274 85.7436 55.0925 85.1085 55.0925 84.3281C55.0925 83.5476 55.7274 82.9127 56.508 82.9127C57.2886 82.9127 57.9235 83.5476 57.9235 84.3281C57.9235 85.1085 57.2886 85.7436 56.508 85.7436Z" fill="white"/>
<path d="M93.6148 82.8807H88.5577V56.8426C88.5577 51.2762 84.0292 46.7477 78.4628 46.7477H65.2609C48.8833 46.7477 35.5591 60.0719 35.5591 76.4495V84.329C35.5591 85.1283 36.2069 85.7763 37.0064 85.7763H46.9794C47.6801 90.4058 51.6858 93.9655 56.5079 93.9655C61.3299 93.9655 65.3354 90.4058 66.0363 85.7763L89.3487 85.7754V92.5182C89.3487 93.3175 89.9966 93.9655 90.7961 93.9655C91.5956 93.9655 92.2435 93.3175 92.2435 92.5182V85.7754H93.6148C94.4143 85.7754 95.0622 85.1273 95.0622 84.328C95.0622 83.5287 94.4143 82.8807 93.6148 82.8807ZM56.5079 91.0708C52.7899 91.0708 49.7653 88.046 49.7653 84.328C49.7653 80.61 52.7901 77.5854 56.5079 77.5854C60.2256 77.5854 63.2504 80.6102 63.2504 84.328C63.2506 88.046 60.2258 91.0708 56.5079 91.0708ZM85.663 82.8818H66.0365C65.3366 78.2514 61.3305 74.6907 56.5079 74.6907C51.6852 74.6907 47.6791 78.2514 46.9792 82.8818H38.4538V76.4497C38.4538 61.6683 50.4793 49.6426 65.2609 49.6426H78.4628C82.4328 49.6426 85.663 52.8725 85.663 56.8428V82.8818Z" fill="white"/>
<path d="M110.549 73.2151L100.761 58.2994H106.3C106.832 58.2994 107.321 58.0076 107.574 57.5396C107.827 57.0716 107.802 56.5027 107.51 56.0579L99.2178 43.4208H102.679C103.211 43.4208 103.7 43.129 103.953 42.6611C104.206 42.1931 104.181 41.6242 103.89 41.1793L96.3987 29.7637H100.274C100.806 29.7637 101.295 29.4719 101.548 29.0039C101.801 28.5359 101.776 27.9668 101.484 27.5222L91.7501 12.6877C91.4825 12.2799 91.0276 12.0344 90.54 12.0344C90.0523 12.0344 89.5974 12.2799 89.3298 12.6877L79.5956 27.5222C79.3038 27.9668 79.2793 28.5357 79.5321 29.0039C79.7849 29.4721 80.2739 29.7637 80.8058 29.7637H84.6814L77.1904 41.1793C76.8986 41.624 76.8741 42.1929 77.1269 42.6611C77.3797 43.1292 77.8688 43.4208 78.4006 43.4208H81.8623L81.4534 44.0442C81.0149 44.7125 81.201 45.6098 81.8695 46.0483C82.5376 46.4867 83.4347 46.3005 83.8736 45.6322L85.7534 42.7674C86.0452 42.3228 86.0697 41.7539 85.8169 41.2857C85.5641 40.8175 85.0751 40.5259 84.5432 40.5259H81.0815L88.5725 29.1103C88.8643 28.6656 88.8888 28.0967 88.636 27.6285C88.3832 27.1604 87.8942 26.8688 87.3623 26.8688H83.4867L90.5401 16.1197L97.5936 26.8688H93.7182C93.1863 26.8688 92.6973 27.1606 92.4445 27.6285C92.1917 28.0965 92.2162 28.6656 92.508 29.1103L99.9988 40.5259H96.5371C96.0052 40.5259 95.5162 40.8177 95.2634 41.2857C95.0106 41.7537 95.0351 42.3228 95.3269 42.7674L103.619 55.4044H98.0807C97.5489 55.4044 97.0598 55.6962 96.807 56.1642C96.5542 56.6322 96.5787 57.2013 96.8705 57.6459L106.658 72.5617H91.9543C91.1548 72.5617 90.507 73.2097 90.507 74.0091C90.507 74.8084 91.1548 75.4564 91.9543 75.4564H109.339C109.871 75.4564 110.36 75.1646 110.613 74.6966C110.866 74.2287 110.841 73.66 110.549 73.2151Z" fill="white"/>
<path d="M37.4243 59.9329C37.6692 60.0936 37.9444 60.1702 38.2169 60.1702C38.6882 60.1702 39.1504 59.9402 39.4283 59.5168L49.1914 44.6383C49.4832 44.1936 49.5077 43.6247 49.2549 43.1566C49.0021 42.6884 48.5131 42.3968 47.9812 42.3968H44.5199L52.0107 30.9811C52.3025 30.5365 52.327 29.9676 52.0742 29.4994C51.8214 29.0312 51.3324 28.7396 50.8005 28.7396H46.9252L53.9787 17.9905L61.0322 28.7396H57.1566C56.6247 28.7396 56.1357 29.0314 55.8829 29.4994C55.6301 29.9674 55.6546 30.5365 55.9464 30.9811L63.4373 42.3968H59.9756C59.1761 42.3968 58.5283 43.0448 58.5283 43.8441C58.5283 44.6435 59.1761 45.2915 59.9756 45.2915H66.1183C66.6501 45.2915 67.1391 44.9997 67.3919 44.5317C67.6447 44.0638 67.6202 43.4947 67.3284 43.05L59.8375 31.6344H63.7131C64.245 31.6344 64.734 31.3426 64.9868 30.8746C65.2396 30.4066 65.2151 29.8375 64.9233 29.3929L55.1891 14.5584C54.9214 14.1506 54.4668 13.9051 53.9789 13.9051C53.4911 13.9051 53.0364 14.1506 52.7687 14.5584L43.0345 29.3929C42.7427 29.8375 42.7182 30.4064 42.971 30.8746C43.2238 31.3428 43.7129 31.6344 44.2447 31.6344H48.1202L40.6294 43.05C40.3376 43.4949 40.3131 44.0636 40.5659 44.5317C40.8187 44.9999 41.3077 45.2915 41.8396 45.2915H45.3011L37.0087 57.9285C36.5698 58.597 36.756 59.4942 37.4243 59.9329Z" fill="white"/>
<path d="M64.7438 55.7568H55.1918C49.7651 55.7568 45.3501 60.1717 45.3501 65.5985C45.3501 66.3978 45.9979 67.0459 46.7975 67.0459H64.7438C65.5433 67.0459 66.1912 66.3978 66.1912 65.5985V57.2042C66.1912 56.4048 65.5431 55.7568 64.7438 55.7568ZM63.2965 64.1511H48.3965C49.064 61.0129 51.8574 58.6515 55.1918 58.6515H63.2965V64.1511Z" fill="white"/>
<path d="M81.5328 55.7568H71.1959C70.3964 55.7568 69.7485 56.4048 69.7485 57.2042V78.1479C69.7485 78.9473 70.3964 79.5953 71.1959 79.5953H81.5328C82.3323 79.5953 82.9802 78.9473 82.9802 78.1479V57.2042C82.9802 56.4048 82.3321 55.7568 81.5328 55.7568ZM80.0854 76.7006H72.6433V58.6515H80.0854V76.7006Z" fill="white"/>
</g>
<path d="M150.351 72L142.704 57.7986H141.557V72H130.852V33.4924H147.73C150.825 33.4924 153.446 34.0386 155.595 35.131C157.743 36.187 159.364 37.6618 160.456 39.5553C161.549 41.4124 162.095 43.5062 162.095 45.8367C162.095 48.4585 161.366 50.7708 159.91 52.7735C158.49 54.7399 156.396 56.1418 153.629 56.9793L162.313 72H150.351ZM141.557 50.4794H146.856C148.312 50.4794 149.405 50.1335 150.133 49.4416C150.861 48.7498 151.225 47.7484 151.225 46.4375C151.225 45.1994 150.843 44.2345 150.078 43.5426C149.35 42.8143 148.276 42.4502 146.856 42.4502H141.557V50.4794ZM198.316 41.3578V72H187.555V67.6303C186.645 69.0141 185.389 70.1429 183.786 71.0168C182.184 71.8543 180.345 72.2731 178.27 72.2731C174.701 72.2731 171.879 71.1079 169.804 68.7774C167.764 66.4105 166.745 63.2061 166.745 59.1641V41.3578H177.396V57.7986C177.396 59.5465 177.851 60.9302 178.761 61.9498C179.708 62.933 180.946 63.4245 182.476 63.4245C184.041 63.4245 185.279 62.933 186.19 61.9498C187.1 60.9302 187.555 59.5465 187.555 57.7986V41.3578H198.316ZM222.488 62.8783V72H217.845C210.016 72 206.102 68.1219 206.102 60.3658V50.261H202.333V41.3578H206.102V33.9294H216.862V41.3578H222.433V50.261H216.862V60.5297C216.862 61.3672 217.044 61.968 217.408 62.3321C217.809 62.6963 218.464 62.8783 219.374 62.8783H222.488ZM256.675 56.3239C256.675 57.1614 256.62 57.9989 256.511 58.8364H236.247C236.356 60.5114 236.811 61.7677 237.612 62.6052C238.45 63.4063 239.506 63.8069 240.78 63.8069C242.564 63.8069 243.839 63.0058 244.604 61.4036H256.019C255.546 63.5156 254.617 65.4091 253.234 67.0841C251.886 68.7228 250.175 70.0154 248.099 70.9622C246.024 71.909 243.73 72.3823 241.217 72.3823C238.195 72.3823 235.5 71.7451 233.133 70.4706C230.803 69.1961 228.964 67.3754 227.617 65.0085C226.306 62.6417 225.65 59.856 225.65 56.6516C225.65 53.4472 226.306 50.6797 227.617 48.3492C228.927 45.9823 230.748 44.1616 233.079 42.8872C235.446 41.6127 238.158 40.9754 241.217 40.9754C244.239 40.9754 246.916 41.5945 249.246 42.8325C251.577 44.0706 253.398 45.8549 254.708 48.1854C256.019 50.4794 256.675 53.1923 256.675 56.3239ZM245.751 53.6474C245.751 52.3365 245.314 51.317 244.44 50.5887C243.566 49.824 242.473 49.4416 241.163 49.4416C239.852 49.4416 238.777 49.8058 237.94 50.5341C237.102 51.2259 236.556 52.2637 236.301 53.6474H245.751ZM259.308 56.6516C259.308 53.4836 259.873 50.7161 261.001 48.3492C262.167 45.9823 263.732 44.1616 265.699 42.8872C267.702 41.6127 269.923 40.9754 272.362 40.9754C274.474 40.9754 276.295 41.3942 277.825 42.2317C279.354 43.0692 280.537 44.1981 281.375 45.6182V41.3578H292.081V72H281.375V67.7396C280.537 69.1597 279.336 70.2886 277.77 71.1261C276.241 71.9636 274.438 72.3823 272.362 72.3823C269.923 72.3823 267.702 71.7451 265.699 70.4706C263.732 69.1961 262.167 67.3754 261.001 65.0085C259.873 62.6052 259.308 59.8196 259.308 56.6516ZM281.375 56.6516C281.375 54.6852 280.829 53.1376 279.736 52.0088C278.68 50.88 277.369 50.3156 275.804 50.3156C274.201 50.3156 272.872 50.88 271.816 52.0088C270.76 53.1012 270.232 54.6488 270.232 56.6516C270.232 58.6179 270.76 60.1837 271.816 61.349C272.872 62.4778 274.201 63.0422 275.804 63.0422C277.369 63.0422 278.68 62.4778 279.736 61.349C280.829 60.2201 281.375 58.6543 281.375 56.6516Z" fill="white"/>
<defs>
<clipPath id="clip0_226_106">
<rect width="81.9311" height="81.9311" fill="white" transform="translate(32.207 12.0345)"/>
</clipPath>
</defs>
</svg>
