<svg width="24" height="24" viewBox="0 0 24 24" fill="none" xmlns="http://www.w3.org/2000/svg">
<path fill-rule="evenodd" clip-rule="evenodd" d="M23.279 3.0397C23.301 2.77095 23.3118 2.5014 23.3113 2.23176V0.615875H20.4835C18.3855 0.615526 16.3439 1.29576 14.6654 2.55445C12.9868 3.81314 11.7619 5.58236 11.1744 7.59648C10.2689 6.42845 9.10798 5.48329 7.7806 4.83347C6.45322 4.18364 4.99466 3.84642 3.51676 3.84764H0.688965V5.46352C0.688965 8.03487 1.71043 10.5009 3.52865 12.3191C5.34687 14.1373 7.8129 15.1588 10.3842 15.1588H10.7882V22.0263C10.7882 22.3477 10.9159 22.656 11.1432 22.8832C11.3705 23.1105 11.6787 23.2382 12.0001 23.2382C12.3215 23.2382 12.6298 23.1105 12.8571 22.8832C13.0844 22.656 13.212 22.3477 13.212 22.0263V11.927H13.616C16.0477 11.9274 18.3908 11.0139 20.1806 9.36777C21.9705 7.72161 23.0763 5.46297 23.279 3.0397ZM13.2557 9.50322C13.4544 7.72544 14.3015 6.08331 15.635 4.89087C16.9684 3.69842 18.6946 3.03935 20.4835 3.0397H20.8438C20.6451 4.81748 19.798 6.45961 18.4645 7.65205C17.1311 8.84449 15.4049 9.50356 13.616 9.50322H13.2557ZM3.51676 6.27146C5.30561 6.27111 7.03183 6.93018 8.36527 8.12263C9.69872 9.31507 10.5458 10.9572 10.7446 12.735H10.3842C8.59539 12.7353 6.86918 12.0763 5.53573 10.8838C4.20228 9.69137 3.35518 8.04924 3.15641 6.27146H3.51676Z" fill="#2E2E2E"/>
</svg>
