<svg width="62" height="52" viewBox="0 0 62 52" fill="none" xmlns="http://www.w3.org/2000/svg">
<g clip-path="url(#clip0_28_10)">
<path d="M58.3332 39.5812C58.4937 39.9989 58.3621 40.3485 58.0065 40.6357C54.6754 43.326 51.179 45.7662 47.3733 47.741L44.1957 49.3873C44.8513 49.9126 45.591 50.0602 46.3763 50.0308C47.2359 49.9984 47.9562 49.6025 48.6215 49.0933C49.4163 48.4849 50.1682 47.8118 51.0034 47.2664C53.0257 45.9456 55.2052 46.065 57.1182 47.5543C57.9307 48.1869 58.6776 48.9096 59.5206 49.4952C59.9283 49.7784 60.4502 49.9328 60.9506 50.0437L61.0614 50.0677C61.6685 50.196 62.0375 50.5028 61.997 51.0288C61.9568 51.5507 61.5447 51.8556 60.9223 51.8153C59.6036 51.7299 58.5698 51.0473 57.601 50.2223C56.9961 49.7072 56.4118 49.158 55.759 48.7112C54.5485 47.8828 53.2638 47.8586 52.0304 48.6539C51.3035 49.1227 50.6426 49.6961 49.9623 50.2355C48.8659 51.1048 47.6827 51.7449 46.239 51.7667C44.6554 51.7907 43.3812 51.0779 42.2137 50.0983C41.7962 49.748 41.3827 49.3925 40.9573 49.0521C39.3622 47.7754 37.7281 47.776 36.1274 49.0529C35.9409 49.2017 35.7563 49.353 35.5722 49.5049L35.2041 49.8088C34.8971 50.0617 34.5887 50.3127 34.272 50.5528C32.3126 52.0386 30.0688 52.1095 28.0384 50.7183C27.2997 50.2121 26.6263 49.6099 25.9218 49.0531C24.321 47.7881 22.9923 47.792 21.3629 49.0477L21.2296 49.1507L20.8301 49.4605C20.2971 49.8735 19.7608 50.2829 19.1978 50.6502C17.0761 52.0343 14.9166 51.9764 12.8079 50.6387C11.9353 50.0851 11.1387 49.4112 10.3121 48.7844L10.1879 48.6908C9.85802 48.4436 9.53211 48.1905 9.1934 47.956C8.72097 47.6289 8.21251 47.5374 7.70104 47.849C6.79725 48.3996 5.90405 48.9676 5.00892 49.5323C4.16298 50.066 3.34556 50.6525 2.46588 51.122C1.98939 51.3763 1.41672 51.4946 0.873452 51.5643C0.367902 51.629 0.0200925 51.2523 0.000838455 50.7771C-0.0181389 50.309 0.286554 50.0149 0.760015 49.88L0.787516 49.8724C1.29095 49.7372 1.8093 49.5658 2.24596 49.2903C3.47813 48.5132 4.67197 47.6748 5.87968 46.8587C5.91386 46.8355 5.93382 46.7915 5.9748 46.7387L5.22508 45.3164C4.97489 44.8416 4.72483 44.3662 4.47616 43.89C4.03995 43.0546 4.32381 42.4942 5.2601 42.427C7.78433 42.2461 10.3104 42.0908 12.8359 41.9277L27.372 40.9917C30.8079 40.77 34.2435 40.546 37.6793 40.3236C42.5246 40.0099 47.3699 39.6966 52.2152 39.3834C53.5036 39.3001 54.7921 39.2189 56.0804 39.1344L57.3687 39.0487C57.8125 39.0186 58.1687 39.1531 58.3332 39.5812ZM54.6471 41.0583L54.604 40.9522L6.50376 44.0593L6.62251 44.2818C6.93437 44.868 7.21033 45.3974 7.51203 45.9115C7.53984 45.9588 7.63707 45.9685 7.73899 45.9719L7.84313 45.9745C7.8538 45.9748 7.86425 45.9752 7.87441 45.9757L7.90391 45.9774C8.32194 46.0084 8.77891 45.9345 9.15004 46.0814C9.74258 46.3161 10.3086 46.6523 10.8311 47.0233C11.7659 47.6873 12.6307 48.4524 13.5774 49.0974C15.2595 50.2435 16.8437 50.2094 18.4984 49.0474C19.1968 48.557 19.8592 48.0153 20.551 47.5151C22.7143 45.9514 24.7636 45.9839 26.8754 47.6165C27.4925 48.0936 28.0806 48.6084 28.6967 49.0869C30.2412 50.2866 31.8083 50.291 33.3451 49.0992C33.8568 48.7023 34.3442 48.2738 34.8464 47.8644C37.1243 46.0075 39.4335 45.8285 41.6735 47.4844L41.7414 47.5352C42.4584 48.0774 42.9919 48.0501 43.7063 47.6927L44.0542 47.5182C47.2406 45.9153 50.3667 44.212 53.253 42.0951C53.7199 41.7526 54.1825 41.404 54.6471 41.0583ZM9.98248 0.164068C15.1886 2.52058 19.8638 5.69058 24.1128 9.50072C29.4001 14.2419 33.5669 19.8405 36.6446 26.2436C38.2645 29.6138 39.5244 33.1143 40.103 36.831L40.1308 37.0133L40.1728 37.3043C40.1736 38.0235 39.5993 38.4462 39.0008 38.2036C36.0286 36.9986 32.9596 36.1629 29.7882 35.6856C25.597 35.0548 21.4586 35.2117 17.3839 36.4426C14.6818 37.2589 12.1116 38.3724 9.72299 39.8918C9.28201 40.1724 8.81443 40.1235 8.52651 39.7801C8.22745 39.4234 8.22789 38.9932 8.57332 38.6168C11.0687 35.8984 12.5206 32.634 13.4833 29.1236C14.4238 25.6939 14.7672 22.1892 14.5566 18.6436C14.3983 15.9786 13.7612 13.4 12.9276 10.8687C11.8493 7.59392 10.4499 4.46363 8.76268 1.46085C8.48703 0.970191 8.49215 0.58791 8.7708 0.273861C9.05926 -0.0511753 9.43074 -0.0857349 9.98248 0.164068ZM26.0323 6.28536C26.515 6.42661 27.1653 6.566 27.7769 6.80481C30.219 7.75848 32.3229 9.27157 34.3271 10.9246C37.5845 13.6111 40.5672 16.5826 43.2345 19.8598C45.0909 22.1408 46.6139 24.6498 48.0024 27.2399C49.5767 30.1768 50.9324 33.213 52.0833 36.3408L52.1633 36.5591C52.1935 36.6423 52.2248 36.725 52.2529 36.8089C52.3741 37.1706 52.359 37.5203 52.0766 37.7967C51.7882 38.0789 51.4427 38.0975 51.0777 37.9543L51.0522 37.944C50.529 37.7283 49.9988 37.5291 49.4766 37.3113L49.2533 37.2167C47.7843 36.584 46.2745 36.4575 44.7196 36.812C44.5763 36.8447 44.4309 36.8694 44.2856 36.8918C43.7088 36.9809 43.3486 36.7548 43.1911 36.1942C41.6767 30.8035 39.5415 25.6701 36.8385 20.7725L36.7032 20.5287C34.9606 17.4043 32.9653 14.4664 30.3725 11.9702C28.8416 10.4963 27.2306 9.12207 25.4513 7.95494C25.039 7.68449 24.8845 7.3092 25.0203 6.89954C25.1539 6.49652 25.4657 6.33835 26.0323 6.28536ZM11.5391 2.86458C11.5441 3.00096 11.5805 3.10748 11.6299 3.20743C12.7613 5.49705 13.7452 7.84878 14.5444 10.2755C15.3024 12.5777 15.8838 14.9241 16.1622 17.3368C16.4739 20.0376 16.3457 22.7312 15.9764 25.4174C15.4902 28.9548 14.5124 32.3382 12.8258 35.4983L12.6297 35.8665C12.5314 36.0512 12.4327 36.2372 12.3323 36.426C12.3945 36.4428 12.4261 36.4631 12.4464 36.455C12.624 36.3846 12.8007 36.3117 12.9756 36.2347C16.5552 34.6583 20.2852 33.7062 24.2026 33.6084C28.676 33.4967 33.0087 34.3057 37.2398 35.715L37.5286 35.8113C37.7379 35.8801 37.9612 35.9512 38.2504 36.0452C36.5364 28.5178 32.9833 22.0478 28.1941 16.2276C23.5774 10.617 17.9621 6.23299 11.5391 2.86458ZM32.7943 11.991L32.851 12.0554L32.9636 12.1814C33.0071 12.2305 33.0467 12.2767 33.0837 12.3249C33.3463 12.6663 33.6147 13.0038 33.8843 13.3405L34.3247 13.8901C34.9865 14.7173 35.6397 15.5501 36.2143 16.4343C39.8483 22.0265 42.5205 28.0732 44.4686 34.4456L44.5274 34.6388C44.6286 34.9725 44.7676 35.0662 45.0918 35.0171L45.1142 35.0135C46.5714 34.7701 47.9956 34.8965 49.3768 35.4302L49.4482 35.4582C49.5801 35.5107 49.7212 35.5399 49.977 35.6148C48.106 30.9313 45.8947 26.5716 43.0968 22.5076C40.6773 18.9932 34.1985 12.754 32.7943 11.991Z" fill="#1A222D"/>
</g>
<defs>
<clipPath id="clip0_28_10">
<rect width="62" height="52" fill="white"/>
</clipPath>
</defs>
</svg>
