<svg width="200" height="100" viewBox="0 0 94 28" fill="none" xmlns="http://www.w3.org/2000/svg">
<path d="M0.396 8.776C0.396 7.944 0.576 7.204 0.936 6.556C1.296 5.9 1.796 5.392 2.436 5.032C3.084 4.664 3.816 4.48 4.632 4.48C5.632 4.48 6.488 4.744 7.2 5.272C7.912 5.8 8.388 6.52 8.628 7.432H6.372C6.204 7.08 5.964 6.812 5.652 6.628C5.348 6.444 5 6.352 4.608 6.352C3.976 6.352 3.464 6.572 3.072 7.012C2.68 7.452 2.484 8.04 2.484 8.776C2.484 9.512 2.68 10.1 3.072 10.54C3.464 10.98 3.976 11.2 4.608 11.2C5 11.2 5.348 11.108 5.652 10.924C5.964 10.74 6.204 10.472 6.372 10.12H8.628C8.388 11.032 7.912 11.752 7.2 12.28C6.488 12.8 5.632 13.06 4.632 13.06C3.816 13.06 3.084 12.88 2.436 12.52C1.796 12.152 1.296 11.644 0.936 10.996C0.576 10.348 0.396 9.608 0.396 8.776ZM10.7966 9.64C10.7966 8.952 10.9246 8.348 11.1806 7.828C11.4446 7.308 11.8006 6.908 12.2486 6.628C12.6966 6.348 13.1966 6.208 13.7486 6.208C14.2206 6.208 14.6326 6.304 14.9846 6.496C15.3446 6.688 15.6206 6.94 15.8126 7.252V6.304H17.8646V13H15.8126V12.052C15.6126 12.364 15.3326 12.616 14.9726 12.808C14.6206 13 14.2086 13.096 13.7366 13.096C13.1926 13.096 12.6966 12.956 12.2486 12.676C11.8006 12.388 11.4446 11.984 11.1806 11.464C10.9246 10.936 10.7966 10.328 10.7966 9.64ZM15.8126 9.652C15.8126 9.14 15.6686 8.736 15.3806 8.44C15.1006 8.144 14.7566 7.996 14.3486 7.996C13.9406 7.996 13.5926 8.144 13.3046 8.44C13.0246 8.728 12.8846 9.128 12.8846 9.64C12.8846 10.152 13.0246 10.56 13.3046 10.864C13.5926 11.16 13.9406 11.308 14.3486 11.308C14.7566 11.308 15.1006 11.16 15.3806 10.864C15.6686 10.568 15.8126 10.164 15.8126 9.652ZM24.7492 6.232C25.5332 6.232 26.1572 6.488 26.6212 7C27.0932 7.504 27.3292 8.2 27.3292 9.088V13H25.2892V9.364C25.2892 8.916 25.1732 8.568 24.9412 8.32C24.7092 8.072 24.3972 7.948 24.0052 7.948C23.6132 7.948 23.3012 8.072 23.0692 8.32C22.8372 8.568 22.7212 8.916 22.7212 9.364V13H20.6692V6.304H22.7212V7.192C22.9292 6.896 23.2092 6.664 23.5612 6.496C23.9132 6.32 24.3092 6.232 24.7492 6.232ZM29.6671 9.64C29.6671 8.952 29.7951 8.348 30.0511 7.828C30.3151 7.308 30.6711 6.908 31.1191 6.628C31.5671 6.348 32.0671 6.208 32.6191 6.208C33.0591 6.208 33.4591 6.3 33.8191 6.484C34.1871 6.668 34.4751 6.916 34.6831 7.228V4.12H36.7351V13H34.6831V12.04C34.4911 12.36 34.2151 12.616 33.8551 12.808C33.5031 13 33.0911 13.096 32.6191 13.096C32.0671 13.096 31.5671 12.956 31.1191 12.676C30.6711 12.388 30.3151 11.984 30.0511 11.464C29.7951 10.936 29.6671 10.328 29.6671 9.64ZM34.6831 9.652C34.6831 9.14 34.5391 8.736 34.2511 8.44C33.9711 8.144 33.6271 7.996 33.2191 7.996C32.8111 7.996 32.4631 8.144 32.1751 8.44C31.8951 8.728 31.7551 9.128 31.7551 9.64C31.7551 10.152 31.8951 10.56 32.1751 10.864C32.4631 11.16 32.8111 11.308 33.2191 11.308C33.6271 11.308 33.9711 11.16 34.2511 10.864C34.5391 10.568 34.6831 10.164 34.6831 9.652ZM45.8516 9.544C45.8516 9.736 45.8396 9.936 45.8156 10.144H41.1716C41.2036 10.56 41.3356 10.88 41.5676 11.104C41.8076 11.32 42.0996 11.428 42.4436 11.428C42.9556 11.428 43.3116 11.212 43.5116 10.78H45.6956C45.5836 11.22 45.3796 11.616 45.0836 11.968C44.7956 12.32 44.4316 12.596 43.9916 12.796C43.5516 12.996 43.0596 13.096 42.5156 13.096C41.8596 13.096 41.2756 12.956 40.7636 12.676C40.2516 12.396 39.8516 11.996 39.5636 11.476C39.2756 10.956 39.1316 10.348 39.1316 9.652C39.1316 8.956 39.2716 8.348 39.5516 7.828C39.8396 7.308 40.2396 6.908 40.7516 6.628C41.2636 6.348 41.8516 6.208 42.5156 6.208C43.1636 6.208 43.7396 6.344 44.2436 6.616C44.7476 6.888 45.1396 7.276 45.4196 7.78C45.7076 8.284 45.8516 8.872 45.8516 9.544ZM43.7516 9.004C43.7516 8.652 43.6316 8.372 43.3916 8.164C43.1516 7.956 42.8516 7.852 42.4916 7.852C42.1476 7.852 41.8556 7.952 41.6156 8.152C41.3836 8.352 41.2396 8.636 41.1836 9.004H43.7516ZM50.3062 4.12V13H48.2542V4.12H50.3062ZM52.7052 9.64C52.7052 8.952 52.8332 8.348 53.0892 7.828C53.3532 7.308 53.7092 6.908 54.1572 6.628C54.6052 6.348 55.1052 6.208 55.6572 6.208C56.1292 6.208 56.5412 6.304 56.8932 6.496C57.2532 6.688 57.5292 6.94 57.7212 7.252V6.304H59.7732V13H57.7212V12.052C57.5212 12.364 57.2412 12.616 56.8812 12.808C56.5292 13 56.1172 13.096 55.6452 13.096C55.1012 13.096 54.6052 12.956 54.1572 12.676C53.7092 12.388 53.3532 11.984 53.0892 11.464C52.8332 10.936 52.7052 10.328 52.7052 9.64ZM57.7212 9.652C57.7212 9.14 57.5772 8.736 57.2892 8.44C57.0092 8.144 56.6652 7.996 56.2572 7.996C55.8492 7.996 55.5012 8.144 55.2132 8.44C54.9332 8.728 54.7932 9.128 54.7932 9.64C54.7932 10.152 54.9332 10.56 55.2132 10.864C55.5012 11.16 55.8492 11.308 56.2572 11.308C56.6652 11.308 57.0092 11.16 57.2892 10.864C57.5772 10.568 57.7212 10.164 57.7212 9.652ZM75.7877 4.576V6.22H72.3557V7.996H74.9237V9.592H72.3557V13H70.3037V4.576H75.7877ZM81.2342 13.096C80.5782 13.096 79.9862 12.956 79.4582 12.676C78.9382 12.396 78.5262 11.996 78.2222 11.476C77.9262 10.956 77.7782 10.348 77.7782 9.652C77.7782 8.964 77.9302 8.36 78.2342 7.84C78.5382 7.312 78.9542 6.908 79.4822 6.628C80.0102 6.348 80.6022 6.208 81.2582 6.208C81.9142 6.208 82.5062 6.348 83.0342 6.628C83.5622 6.908 83.9782 7.312 84.2822 7.84C84.5862 8.36 84.7382 8.964 84.7382 9.652C84.7382 10.34 84.5822 10.948 84.2702 11.476C83.9662 11.996 83.5462 12.396 83.0102 12.676C82.4822 12.956 81.8902 13.096 81.2342 13.096ZM81.2342 11.32C81.6262 11.32 81.9582 11.176 82.2302 10.888C82.5102 10.6 82.6502 10.188 82.6502 9.652C82.6502 9.116 82.5142 8.704 82.2422 8.416C81.9782 8.128 81.6502 7.984 81.2582 7.984C80.8582 7.984 80.5262 8.128 80.2622 8.416C79.9982 8.696 79.8662 9.108 79.8662 9.652C79.8662 10.188 79.9942 10.6 80.2502 10.888C80.5142 11.176 80.8422 11.32 81.2342 11.32ZM89.8708 13.096C89.2868 13.096 88.7668 12.996 88.3108 12.796C87.8548 12.596 87.4948 12.324 87.2308 11.98C86.9668 11.628 86.8188 11.236 86.7868 10.804H88.8148C88.8388 11.036 88.9468 11.224 89.1388 11.368C89.3308 11.512 89.5668 11.584 89.8468 11.584C90.1028 11.584 90.2988 11.536 90.4348 11.44C90.5788 11.336 90.6508 11.204 90.6508 11.044C90.6508 10.852 90.5508 10.712 90.3508 10.624C90.1508 10.528 89.8268 10.424 89.3788 10.312C88.8988 10.2 88.4988 10.084 88.1788 9.964C87.8588 9.836 87.5828 9.64 87.3508 9.376C87.1188 9.104 87.0028 8.74 87.0028 8.284C87.0028 7.9 87.1068 7.552 87.3148 7.24C87.5308 6.92 87.8428 6.668 88.2508 6.484C88.6668 6.3 89.1588 6.208 89.7268 6.208C90.5668 6.208 91.2268 6.416 91.7068 6.832C92.1948 7.248 92.4748 7.8 92.5468 8.488H90.6508C90.6188 8.256 90.5148 8.072 90.3388 7.936C90.1708 7.8 89.9468 7.732 89.6668 7.732C89.4268 7.732 89.2428 7.78 89.1148 7.876C88.9868 7.964 88.9228 8.088 88.9228 8.248C88.9228 8.44 89.0228 8.584 89.2228 8.68C89.4308 8.776 89.7508 8.872 90.1828 8.968C90.6788 9.096 91.0828 9.224 91.3948 9.352C91.7068 9.472 91.9788 9.672 92.2108 9.952C92.4508 10.224 92.5748 10.592 92.5828 11.056C92.5828 11.448 92.4708 11.8 92.2468 12.112C92.0308 12.416 91.7148 12.656 91.2988 12.832C90.8908 13.008 90.4148 13.096 89.8708 13.096Z" fill="black"/>
<path d="M51.0903 18.96C51.0903 19.58 50.897 20.0633 50.5103 20.41C50.1236 20.75 49.5503 20.92 48.7903 20.92H47.2903V24H46.8403V16.98H48.7903C49.5636 16.98 50.1403 17.16 50.5203 17.52C50.9003 17.8733 51.0903 18.3533 51.0903 18.96ZM48.7903 20.52C50.0236 20.52 50.6403 20 50.6403 18.96C50.6403 18.4467 50.4936 18.0567 50.2003 17.79C49.907 17.5167 49.437 17.38 48.7903 17.38H47.2903V20.52H48.7903ZM55.7893 24.08C55.2826 24.08 54.826 23.9667 54.4193 23.74C54.0126 23.5133 53.6926 23.19 53.4593 22.77C53.2326 22.3433 53.1193 21.8467 53.1193 21.28C53.1193 20.72 53.236 20.23 53.4693 19.81C53.7026 19.3833 54.0226 19.06 54.4293 18.84C54.8426 18.6133 55.3026 18.5 55.8093 18.5C56.316 18.5 56.7726 18.6133 57.1793 18.84C57.586 19.06 57.9026 19.38 58.1293 19.8C58.3626 20.22 58.4793 20.7133 58.4793 21.28C58.4793 21.8467 58.3626 22.3433 58.1293 22.77C57.896 23.19 57.5726 23.5133 57.1593 23.74C56.7526 23.9667 56.296 24.08 55.7893 24.08ZM55.7893 23.68C56.1826 23.68 56.5493 23.5933 56.8893 23.42C57.236 23.24 57.5126 22.97 57.7193 22.61C57.926 22.25 58.0293 21.8067 58.0293 21.28C58.0293 20.76 57.926 20.32 57.7193 19.96C57.5126 19.6 57.2393 19.3333 56.8993 19.16C56.5593 18.98 56.1926 18.89 55.7993 18.89C55.406 18.89 55.0393 18.98 54.6993 19.16C54.366 19.3333 54.096 19.6 53.8893 19.96C53.6826 20.32 53.5793 20.76 53.5793 21.28C53.5793 21.8067 53.6793 22.25 53.8793 22.61C54.086 22.97 54.356 23.24 54.6893 23.42C55.0293 23.5933 55.396 23.68 55.7893 23.68ZM61.3946 19.69C61.5279 19.29 61.7646 18.9867 62.1046 18.78C62.4446 18.5667 62.8779 18.46 63.4046 18.46V18.93H63.2546C62.7213 18.93 62.2779 19.0833 61.9246 19.39C61.5713 19.69 61.3946 20.1833 61.3946 20.87V24H60.9446V18.57H61.3946V19.69ZM66.2107 18.96V22.55C66.2107 22.95 66.284 23.2267 66.4307 23.38C66.5774 23.5267 66.8374 23.6 67.2107 23.6H67.8207V24H67.1407C66.6674 24 66.3174 23.89 66.0907 23.67C65.8707 23.4433 65.7607 23.07 65.7607 22.55V18.96H64.9407V18.57H65.7607V17.19H66.2107V18.57H67.8207V18.96H66.2107ZM72.1775 18.97H70.7675V24H70.3175V18.97H69.4975V18.57H70.3175V18.19C70.3175 17.6233 70.4608 17.2033 70.7475 16.93C71.0342 16.65 71.5042 16.51 72.1575 16.51V16.91C71.6375 16.91 71.2742 17.01 71.0675 17.21C70.8675 17.41 70.7675 17.7367 70.7675 18.19V18.57H72.1775V18.97ZM76.8202 24.08C76.3135 24.08 75.8568 23.9667 75.4502 23.74C75.0435 23.5133 74.7235 23.19 74.4902 22.77C74.2635 22.3433 74.1502 21.8467 74.1502 21.28C74.1502 20.72 74.2668 20.23 74.5002 19.81C74.7335 19.3833 75.0535 19.06 75.4602 18.84C75.8735 18.6133 76.3335 18.5 76.8402 18.5C77.3468 18.5 77.8035 18.6133 78.2102 18.84C78.6168 19.06 78.9335 19.38 79.1602 19.8C79.3935 20.22 79.5102 20.7133 79.5102 21.28C79.5102 21.8467 79.3935 22.3433 79.1602 22.77C78.9268 23.19 78.6035 23.5133 78.1902 23.74C77.7835 23.9667 77.3268 24.08 76.8202 24.08ZM76.8202 23.68C77.2135 23.68 77.5802 23.5933 77.9202 23.42C78.2668 23.24 78.5435 22.97 78.7502 22.61C78.9568 22.25 79.0602 21.8067 79.0602 21.28C79.0602 20.76 78.9568 20.32 78.7502 19.96C78.5435 19.6 78.2702 19.3333 77.9302 19.16C77.5902 18.98 77.2235 18.89 76.8302 18.89C76.4368 18.89 76.0702 18.98 75.7302 19.16C75.3968 19.3333 75.1268 19.6 74.9202 19.96C74.7135 20.32 74.6102 20.76 74.6102 21.28C74.6102 21.8067 74.7102 22.25 74.9102 22.61C75.1168 22.97 75.3868 23.24 75.7202 23.42C76.0602 23.5933 76.4268 23.68 76.8202 23.68ZM82.4255 16.6V24H81.9755V16.6H82.4255ZM85.4051 17.36C85.2984 17.36 85.2084 17.3267 85.1351 17.26C85.0617 17.1867 85.0251 17.09 85.0251 16.97C85.0251 16.8567 85.0617 16.7633 85.1351 16.69C85.2084 16.6167 85.2984 16.58 85.4051 16.58C85.5117 16.58 85.6017 16.6167 85.6751 16.69C85.7484 16.7633 85.7851 16.8567 85.7851 16.97C85.7851 17.09 85.7484 17.1867 85.6751 17.26C85.6017 17.3267 85.5117 17.36 85.4051 17.36ZM85.6251 18.57V24H85.1751V18.57H85.6251ZM90.7647 24.08C90.258 24.08 89.8014 23.9667 89.3947 23.74C88.988 23.5133 88.668 23.19 88.4347 22.77C88.208 22.3433 88.0947 21.8467 88.0947 21.28C88.0947 20.72 88.2114 20.23 88.4447 19.81C88.678 19.3833 88.998 19.06 89.4047 18.84C89.818 18.6133 90.278 18.5 90.7847 18.5C91.2914 18.5 91.748 18.6133 92.1547 18.84C92.5614 19.06 92.878 19.38 93.1047 19.8C93.338 20.22 93.4547 20.7133 93.4547 21.28C93.4547 21.8467 93.338 22.3433 93.1047 22.77C92.8714 23.19 92.548 23.5133 92.1347 23.74C91.728 23.9667 91.2714 24.08 90.7647 24.08ZM90.7647 23.68C91.158 23.68 91.5247 23.5933 91.8647 23.42C92.2114 23.24 92.488 22.97 92.6947 22.61C92.9014 22.25 93.0047 21.8067 93.0047 21.28C93.0047 20.76 92.9014 20.32 92.6947 19.96C92.488 19.6 92.2147 19.3333 91.8747 19.16C91.5347 18.98 91.168 18.89 90.7747 18.89C90.3814 18.89 90.0147 18.98 89.6747 19.16C89.3414 19.3333 89.0714 19.6 88.8647 19.96C88.658 20.32 88.5547 20.76 88.5547 21.28C88.5547 21.8067 88.6547 22.25 88.8547 22.61C89.0614 22.97 89.3314 23.24 89.6647 23.42C90.0047 23.5933 90.3714 23.68 90.7647 23.68Z" fill="var(--txt)"/>
</svg>
