<svg width="262" height="78" viewBox="0 0 262 78" fill="none" xmlns="http://www.w3.org/2000/svg">
<path d="M1.10314 25.2331C1.10314 22.9154 1.60457 20.854 2.60743 19.0489C3.61029 17.2214 5.00314 15.8063 6.786 14.8034C8.59114 13.7783 10.6303 13.2657 12.9034 13.2657C15.6891 13.2657 18.0737 14.0011 20.0571 15.472C22.0406 16.9429 23.3666 18.9486 24.0351 21.4891H17.7506C17.2826 20.5086 16.614 19.762 15.7449 19.2494C14.898 18.7369 13.9286 18.4806 12.8366 18.4806C11.076 18.4806 9.64972 19.0934 8.55772 20.3191C7.46572 21.5449 6.91972 23.1829 6.91972 25.2331C6.91972 27.2834 7.46572 28.9214 8.55772 30.1471C9.64972 31.3729 11.076 31.9857 12.8366 31.9857C13.9286 31.9857 14.898 31.7294 15.7449 31.2169C16.614 30.7043 17.2826 29.9577 17.7506 28.9771H24.0351C23.3666 31.5177 22.0406 33.5234 20.0571 34.9943C18.0737 36.4429 15.6891 37.1671 12.9034 37.1671C10.6303 37.1671 8.59114 36.6657 6.786 35.6629C5.00314 34.6377 3.61029 33.2226 2.60743 31.4174C1.60457 29.6123 1.10314 27.5509 1.10314 25.2331ZM30.0763 27.64C30.0763 25.7234 30.4329 24.0409 31.146 22.5923C31.8815 21.1437 32.8732 20.0294 34.1212 19.2494C35.3692 18.4694 36.762 18.0794 38.2997 18.0794C39.6146 18.0794 40.7623 18.3469 41.7429 18.8817C42.7457 19.4166 43.5146 20.1186 44.0495 20.9877V18.3469H49.7657V37H44.0495V34.3591C43.4923 35.2283 42.7123 35.9303 41.7095 36.4651C40.7289 37 39.5812 37.2674 38.2663 37.2674C36.7509 37.2674 35.3692 36.8774 34.1212 36.0974C32.8732 35.2951 31.8815 34.1697 31.146 32.7211C30.4329 31.2503 30.0763 29.5566 30.0763 27.64ZM44.0495 27.6734C44.0495 26.2471 43.6483 25.1217 42.846 24.2971C42.066 23.4726 41.1077 23.0603 39.9712 23.0603C38.8346 23.0603 37.8652 23.4726 37.0629 24.2971C36.2829 25.0994 35.8929 26.2137 35.8929 27.64C35.8929 29.0663 36.2829 30.2029 37.0629 31.0497C37.8652 31.8743 38.8346 32.2866 39.9712 32.2866C41.1077 32.2866 42.066 31.8743 42.846 31.0497C43.6483 30.2251 44.0495 29.0997 44.0495 27.6734ZM68.9441 18.1463C71.1281 18.1463 72.8664 18.8594 74.1589 20.2857C75.4738 21.6897 76.1312 23.6286 76.1312 26.1023V37H70.4484V26.8711C70.4484 25.6231 70.1252 24.6537 69.4789 23.9629C68.8327 23.272 67.9635 22.9266 66.8715 22.9266C65.7795 22.9266 64.9104 23.272 64.2641 23.9629C63.6178 24.6537 63.2947 25.6231 63.2947 26.8711V37H57.5784V18.3469H63.2947V20.8206C63.8741 19.996 64.6541 19.3497 65.6347 18.8817C66.6152 18.3914 67.7184 18.1463 68.9441 18.1463ZM82.6441 27.64C82.6441 25.7234 83.0006 24.0409 83.7138 22.5923C84.4492 21.1437 85.4409 20.0294 86.6889 19.2494C87.9369 18.4694 89.3298 18.0794 90.8675 18.0794C92.0932 18.0794 93.2075 18.3357 94.2103 18.8483C95.2355 19.3609 96.0378 20.0517 96.6172 20.9209V12.2629H102.333V37H96.6172V34.3257C96.0823 35.2171 95.3135 35.9303 94.3106 36.4651C93.3301 37 92.1823 37.2674 90.8675 37.2674C89.3298 37.2674 87.9369 36.8774 86.6889 36.0974C85.4409 35.2951 84.4492 34.1697 83.7138 32.7211C83.0006 31.2503 82.6441 29.5566 82.6441 27.64ZM96.6172 27.6734C96.6172 26.2471 96.2161 25.1217 95.4138 24.2971C94.6338 23.4726 93.6755 23.0603 92.5389 23.0603C91.4023 23.0603 90.4329 23.4726 89.6306 24.2971C88.8506 25.0994 88.4606 26.2137 88.4606 27.64C88.4606 29.0663 88.8506 30.2029 89.6306 31.0497C90.4329 31.8743 91.4023 32.2866 92.5389 32.2866C93.6755 32.2866 94.6338 31.8743 95.4138 31.0497C96.2161 30.2251 96.6172 29.0997 96.6172 27.6734ZM127.73 27.3726C127.73 27.9074 127.696 28.4646 127.629 29.044H114.692C114.782 30.2029 115.149 31.0943 115.796 31.7183C116.464 32.32 117.278 32.6209 118.236 32.6209C119.662 32.6209 120.654 32.0191 121.211 30.8157H127.295C126.983 32.0414 126.415 33.1446 125.59 34.1251C124.788 35.1057 123.774 35.8746 122.548 36.4317C121.322 36.9889 119.952 37.2674 118.436 37.2674C116.609 37.2674 114.982 36.8774 113.556 36.0974C112.13 35.3174 111.015 34.2031 110.213 32.7546C109.411 31.306 109.01 29.6123 109.01 27.6734C109.01 25.7346 109.4 24.0409 110.18 22.5923C110.982 21.1437 112.096 20.0294 113.522 19.2494C114.949 18.4694 116.587 18.0794 118.436 18.0794C120.242 18.0794 121.846 18.4583 123.25 19.216C124.654 19.9737 125.746 21.0546 126.526 22.4586C127.328 23.8626 127.73 25.5006 127.73 27.3726ZM121.88 25.8683C121.88 24.8877 121.545 24.1077 120.877 23.5283C120.208 22.9489 119.372 22.6591 118.37 22.6591C117.411 22.6591 116.598 22.9377 115.929 23.4949C115.283 24.052 114.882 24.8431 114.726 25.8683H121.88ZM140.139 12.2629V37H134.422V12.2629H140.139ZM146.822 27.64C146.822 25.7234 147.178 24.0409 147.891 22.5923C148.627 21.1437 149.619 20.0294 150.867 19.2494C152.115 18.4694 153.507 18.0794 155.045 18.0794C156.36 18.0794 157.508 18.3469 158.488 18.8817C159.491 19.4166 160.26 20.1186 160.795 20.9877V18.3469H166.511V37H160.795V34.3591C160.238 35.2283 159.458 35.9303 158.455 36.4651C157.474 37 156.327 37.2674 155.012 37.2674C153.496 37.2674 152.115 36.8774 150.867 36.0974C149.619 35.2951 148.627 34.1697 147.891 32.7211C147.178 31.2503 146.822 29.5566 146.822 27.64ZM160.795 27.6734C160.795 26.2471 160.394 25.1217 159.591 24.2971C158.811 23.4726 157.853 23.0603 156.717 23.0603C155.58 23.0603 154.611 23.4726 153.808 24.2971C153.028 25.0994 152.638 26.2137 152.638 27.64C152.638 29.0663 153.028 30.2029 153.808 31.0497C154.611 31.8743 155.58 32.2866 156.717 32.2866C157.853 32.2866 158.811 31.8743 159.591 31.0497C160.394 30.2251 160.795 29.0997 160.795 27.6734ZM211.123 13.5331V18.1129H201.562V23.0603H208.716V27.5063H201.562V37H195.846V13.5331H211.123ZM226.295 37.2674C224.468 37.2674 222.819 36.8774 221.348 36.0974C219.899 35.3174 218.752 34.2031 217.905 32.7546C217.08 31.306 216.668 29.6123 216.668 27.6734C216.668 25.7569 217.091 24.0743 217.938 22.6257C218.785 21.1549 219.944 20.0294 221.415 19.2494C222.886 18.4694 224.535 18.0794 226.362 18.0794C228.19 18.0794 229.839 18.4694 231.31 19.2494C232.78 20.0294 233.939 21.1549 234.786 22.6257C235.633 24.0743 236.056 25.7569 236.056 27.6734C236.056 29.59 235.622 31.2837 234.753 32.7546C233.906 34.2031 232.736 35.3174 231.243 36.0974C229.772 36.8774 228.123 37.2674 226.295 37.2674ZM226.295 32.32C227.387 32.32 228.312 31.9189 229.07 31.1166C229.85 30.3143 230.24 29.1666 230.24 27.6734C230.24 26.1803 229.861 25.0326 229.103 24.2303C228.368 23.428 227.454 23.0269 226.362 23.0269C225.248 23.0269 224.323 23.428 223.588 24.2303C222.852 25.0103 222.484 26.158 222.484 27.6734C222.484 29.1666 222.841 30.3143 223.554 31.1166C224.29 31.9189 225.203 32.32 226.295 32.32ZM250.354 37.2674C248.728 37.2674 247.279 36.9889 246.009 36.4317C244.738 35.8746 243.736 35.1169 243 34.1586C242.265 33.178 241.852 32.086 241.763 30.8826H247.413C247.48 31.5289 247.78 32.0526 248.315 32.4537C248.85 32.8549 249.508 33.0554 250.288 33.0554C251.001 33.0554 251.547 32.9217 251.926 32.6543C252.327 32.3646 252.527 31.9969 252.527 31.5511C252.527 31.0163 252.249 30.6263 251.692 30.3811C251.134 30.1137 250.232 29.824 248.984 29.512C247.647 29.2 246.532 28.8769 245.641 28.5426C244.75 28.186 243.981 27.64 243.334 26.9046C242.688 26.1469 242.365 25.1329 242.365 23.8626C242.365 22.7929 242.655 21.8234 243.234 20.9543C243.836 20.0629 244.705 19.3609 245.842 18.8483C247 18.3357 248.371 18.0794 249.953 18.0794C252.293 18.0794 254.132 18.6589 255.469 19.8177C256.828 20.9766 257.608 22.5143 257.809 24.4309H252.527C252.438 23.7846 252.148 23.272 251.658 22.8931C251.19 22.5143 250.566 22.3249 249.786 22.3249C249.118 22.3249 248.605 22.4586 248.248 22.726C247.892 22.9711 247.714 23.3166 247.714 23.7623C247.714 24.2971 247.992 24.6983 248.549 24.9657C249.129 25.2331 250.02 25.5006 251.224 25.768C252.605 26.1246 253.731 26.4811 254.6 26.8377C255.469 27.172 256.227 27.7291 256.873 28.5091C257.542 29.2669 257.887 30.292 257.909 31.5846C257.909 32.6766 257.597 33.6571 256.973 34.5263C256.372 35.3731 255.491 36.0417 254.332 36.532C253.196 37.0223 251.87 37.2674 250.354 37.2674Z" fill="black"/>
<path d="M142.323 53.1744C142.323 54.9015 141.784 56.2479 140.707 57.2136C139.63 58.1608 138.033 58.6344 135.916 58.6344H131.737V67.2144H130.484V47.6586H135.916C138.07 47.6586 139.677 48.1601 140.735 49.1629C141.794 50.1472 142.323 51.4844 142.323 53.1744ZM135.916 57.5201C139.352 57.5201 141.069 56.0715 141.069 53.1744C141.069 51.7444 140.661 50.6579 139.844 49.9151C139.027 49.1536 137.717 48.7729 135.916 48.7729H131.737V57.5201H135.916ZM155.413 67.4372C154.002 67.4372 152.729 67.1215 151.597 66.4901C150.464 65.8586 149.572 64.9579 148.922 63.7879C148.291 62.5994 147.975 61.2158 147.975 59.6372C147.975 58.0772 148.3 56.7122 148.95 55.5422C149.6 54.3536 150.492 53.4529 151.624 52.8401C152.776 52.2086 154.057 51.8929 155.469 51.8929C156.88 51.8929 158.152 52.2086 159.285 52.8401C160.418 53.4529 161.3 54.3444 161.932 55.5144C162.582 56.6844 162.907 58.0586 162.907 59.6372C162.907 61.2158 162.582 62.5994 161.932 63.7879C161.282 64.9579 160.381 65.8586 159.229 66.4901C158.097 67.1215 156.824 67.4372 155.413 67.4372ZM155.413 66.3229C156.509 66.3229 157.53 66.0815 158.477 65.5986C159.443 65.0972 160.214 64.3451 160.789 63.3422C161.365 62.3394 161.653 61.1044 161.653 59.6372C161.653 58.1886 161.365 56.9629 160.789 55.9601C160.214 54.9572 159.452 54.2144 158.505 53.7315C157.558 53.2301 156.537 52.9794 155.441 52.9794C154.345 52.9794 153.324 53.2301 152.377 53.7315C151.448 54.2144 150.696 54.9572 150.12 55.9601C149.544 56.9629 149.257 58.1886 149.257 59.6372C149.257 61.1044 149.535 62.3394 150.092 63.3422C150.668 64.3451 151.42 65.0972 152.349 65.5986C153.296 66.0815 154.317 66.3229 155.413 66.3229ZM171.028 55.2079C171.399 54.0936 172.059 53.2486 173.006 52.6729C173.953 52.0786 175.16 51.7815 176.627 51.7815V53.0908H176.209C174.724 53.0908 173.489 53.5179 172.504 54.3722C171.52 55.2079 171.028 56.5822 171.028 58.4951V67.2144H169.774V52.0879H171.028V55.2079ZM184.444 53.1744V63.1751C184.444 64.2894 184.648 65.0601 185.057 65.4872C185.466 65.8958 186.19 66.1001 187.23 66.1001H188.929V67.2144H187.035C185.716 67.2144 184.741 66.9079 184.11 66.2951C183.497 65.6636 183.191 64.6236 183.191 63.1751V53.1744H180.906V52.0879H183.191V48.2436H184.444V52.0879H188.929V53.1744H184.444ZM201.066 53.2022H197.138V67.2144H195.884V53.2022H193.6V52.0879H195.884V51.0294C195.884 49.4508 196.284 48.2808 197.082 47.5194C197.881 46.7394 199.19 46.3494 201.01 46.3494V47.4636C199.562 47.4636 198.549 47.7422 197.974 48.2994C197.417 48.8565 197.138 49.7665 197.138 51.0294V52.0879H201.066V53.2022ZM213.999 67.4372C212.588 67.4372 211.315 67.1215 210.183 66.4901C209.05 65.8586 208.158 64.9579 207.508 63.7879C206.877 62.5994 206.561 61.2158 206.561 59.6372C206.561 58.0772 206.886 56.7122 207.536 55.5422C208.186 54.3536 209.078 53.4529 210.21 52.8401C211.362 52.2086 212.643 51.8929 214.055 51.8929C215.466 51.8929 216.738 52.2086 217.871 52.8401C219.004 53.4529 219.886 54.3444 220.518 55.5144C221.168 56.6844 221.493 58.0586 221.493 59.6372C221.493 61.2158 221.168 62.5994 220.518 63.7879C219.868 64.9579 218.967 65.8586 217.815 66.4901C216.683 67.1215 215.41 67.4372 213.999 67.4372ZM213.999 66.3229C215.095 66.3229 216.116 66.0815 217.063 65.5986C218.029 65.0972 218.8 64.3451 219.375 63.3422C219.951 62.3394 220.239 61.1044 220.239 59.6372C220.239 58.1886 219.951 56.9629 219.375 55.9601C218.8 54.9572 218.038 54.2144 217.091 53.7315C216.144 53.2301 215.123 52.9794 214.027 52.9794C212.931 52.9794 211.91 53.2301 210.963 53.7315C210.034 54.2144 209.282 54.9572 208.706 55.9601C208.13 56.9629 207.843 58.1886 207.843 59.6372C207.843 61.1044 208.121 62.3394 208.678 63.3422C209.254 64.3451 210.006 65.0972 210.935 65.5986C211.882 66.0815 212.903 66.3229 213.999 66.3229ZM229.614 46.6001V67.2144H228.36V46.6001H229.614ZM237.914 48.7172C237.617 48.7172 237.366 48.6244 237.162 48.4386C236.958 48.2344 236.856 47.9651 236.856 47.6308C236.856 47.3151 236.958 47.0551 237.162 46.8508C237.366 46.6465 237.617 46.5444 237.914 46.5444C238.211 46.5444 238.462 46.6465 238.666 46.8508C238.871 47.0551 238.973 47.3151 238.973 47.6308C238.973 47.9651 238.871 48.2344 238.666 48.4386C238.462 48.6244 238.211 48.7172 237.914 48.7172ZM238.527 52.0879V67.2144H237.273V52.0879H238.527ZM252.844 67.4372C251.433 67.4372 250.161 67.1215 249.028 66.4901C247.895 65.8586 247.004 64.9579 246.354 63.7879C245.722 62.5994 245.407 61.2158 245.407 59.6372C245.407 58.0772 245.732 56.7122 246.382 55.5422C247.032 54.3536 247.923 53.4529 249.056 52.8401C250.207 52.2086 251.489 51.8929 252.9 51.8929C254.312 51.8929 255.584 52.2086 256.717 52.8401C257.849 53.4529 258.732 54.3444 259.363 55.5144C260.013 56.6844 260.338 58.0586 260.338 59.6372C260.338 61.2158 260.013 62.5994 259.363 63.7879C258.713 64.9579 257.812 65.8586 256.661 66.4901C255.528 67.1215 254.256 67.4372 252.844 67.4372ZM252.844 66.3229C253.94 66.3229 254.962 66.0815 255.909 65.5986C256.874 65.0972 257.645 64.3451 258.221 63.3422C258.797 62.3394 259.084 61.1044 259.084 59.6372C259.084 58.1886 258.797 56.9629 258.221 55.9601C257.645 54.9572 256.884 54.2144 255.937 53.7315C254.989 53.2301 253.968 52.9794 252.872 52.9794C251.777 52.9794 250.755 53.2301 249.808 53.7315C248.879 54.2144 248.127 54.9572 247.552 55.9601C246.976 56.9629 246.688 58.1886 246.688 59.6372C246.688 61.1044 246.967 62.3394 247.524 63.3422C248.099 64.3451 248.852 65.0972 249.78 65.5986C250.727 66.0815 251.749 66.3229 252.844 66.3229Z" fill="black"/>
</svg>
