<svg width="28" height="28" viewBox="0 0 28 28" fill="none" xmlns="http://www.w3.org/2000/svg">
<path d="M6.72849 22.379C9.97449 25.625 14.1935 26.5975 16.2675 26.797C16.877 26.867 17.217 26.492 17.2635 26.1055C17.3105 25.6955 17.0525 25.25 16.467 25.168C14.592 24.91 10.713 24.0665 7.90049 21.219C3.30649 16.6135 2.43949 9.6525 6.18949 5.9025C9.23649 2.8675 14.3105 3.254 18.049 5.2695L19.2675 4.086C14.7205 1.3555 8.60349 1.133 5.01749 4.7305C0.751994 9.008 1.31449 16.965 6.72849 22.379ZM23.9085 5.7735L24.8455 4.836C25.2905 4.391 25.3145 3.7345 24.8575 3.3125L24.5525 3.0315C24.1545 2.6565 23.533 2.668 23.0995 3.078L22.174 4.0275L23.9085 5.7735ZM12.5295 17.1285L23.0525 6.617L21.3065 4.883L10.795 15.383L9.82249 17.621C9.72849 17.867 9.97449 18.1135 10.2325 18.031L12.5295 17.1285ZM10.9945 18.875C14.826 22.707 20.99 24.219 24.4355 20.785C27.248 17.961 26.8845 12.945 23.873 8.633L22.678 9.828C25.068 13.367 25.537 17.34 23.2635 19.613C20.4985 22.379 15.9275 21.0665 12.787 18.1015L10.9945 18.875Z" fill="black"/>
</svg>
